<svg width="16" height="16" viewBox="0 0 16 16" fill="none" xmlns="http://www.w3.org/2000/svg">
<path fill-rule="evenodd" clip-rule="evenodd" d="M5.8279 10.1719C5.73414 10.0782 5.60698 10.0255 5.4744 10.0255C5.34182 10.0255 5.21467 10.0782 5.1209 10.1719L1.0249 14.2679V11.4999C1.0249 11.3673 0.972224 11.2401 0.878456 11.1463C0.784688 11.0526 0.657511 10.9999 0.524902 10.9999C0.392294 10.9999 0.265117 11.0526 0.171349 11.1463C0.0775808 11.2401 0.0249023 11.3673 0.0249023 11.4999V15.4749C0.0249023 15.6075 0.0775808 15.7347 0.171349 15.8285C0.265117 15.9222 0.392294 15.9749 0.524902 15.9749H4.4999C4.63251 15.9749 4.75969 15.9222 4.85346 15.8285C4.94722 15.7347 4.9999 15.6075 4.9999 15.4749C4.9999 15.3423 4.94722 15.2151 4.85346 15.1213C4.75969 15.0276 4.63251 14.9749 4.4999 14.9749H1.7319L5.8279 10.8789C5.92164 10.7851 5.9743 10.658 5.9743 10.5254C5.9743 10.3928 5.92164 10.2657 5.8279 10.1719ZM10.1719 10.1719C10.2657 10.0782 10.3928 10.0255 10.5254 10.0255C10.658 10.0255 10.7851 10.0782 10.8789 10.1719L14.9749 14.2679V11.4999C14.9749 11.3673 15.0276 11.2401 15.1213 11.1463C15.2151 11.0526 15.3423 10.9999 15.4749 10.9999C15.6075 10.9999 15.7347 11.0526 15.8285 11.1463C15.9222 11.2401 15.9749 11.3673 15.9749 11.4999V15.4749C15.9749 15.6075 15.9222 15.7347 15.8285 15.8285C15.7347 15.9222 15.6075 15.9749 15.4749 15.9749H11.4999C11.3673 15.9749 11.2401 15.9222 11.1463 15.8285C11.0526 15.7347 10.9999 15.6075 10.9999 15.4749C10.9999 15.3423 11.0526 15.2151 11.1463 15.1213C11.2401 15.0276 11.3673 14.9749 11.4999 14.9749H14.2679L10.1719 10.8789C10.0782 10.7851 10.0255 10.658 10.0255 10.5254C10.0255 10.3928 10.0782 10.2657 10.1719 10.1719ZM10.1719 5.8279C10.2657 5.92164 10.3928 5.9743 10.5254 5.9743C10.658 5.9743 10.7851 5.92164 10.8789 5.8279L14.9749 1.7319V4.4999C14.9749 4.63251 15.0276 4.75969 15.1213 4.85346C15.2151 4.94722 15.3423 4.9999 15.4749 4.9999C15.6075 4.9999 15.7347 4.94722 15.8285 4.85346C15.9222 4.75969 15.9749 4.63251 15.9749 4.4999V0.524902C15.9749 0.392294 15.9222 0.265117 15.8285 0.171349C15.7347 0.0775808 15.6075 0.0249023 15.4749 0.0249023H11.4999C11.3673 0.0249023 11.2401 0.0775808 11.1463 0.171349C11.0526 0.265117 10.9999 0.392294 10.9999 0.524902C10.9999 0.657511 11.0526 0.784688 11.1463 0.878456C11.2401 0.972224 11.3673 1.0249 11.4999 1.0249H14.2679L10.1719 5.1209C10.0782 5.21467 10.0255 5.34182 10.0255 5.4744C10.0255 5.60698 10.0782 5.73414 10.1719 5.8279ZM5.8279 5.8279C5.73414 5.92164 5.60698 5.9743 5.4744 5.9743C5.34182 5.9743 5.21467 5.92164 5.1209 5.8279L1.0249 1.7319V4.4999C1.0249 4.63251 0.972224 4.75969 0.878456 4.85346C0.784688 4.94722 0.657511 4.9999 0.524902 4.9999C0.392294 4.9999 0.265117 4.94722 0.171349 4.85346C0.0775808 4.75969 0.0249023 4.63251 0.0249023 4.4999V0.524902C0.0249023 0.392294 0.0775808 0.265117 0.171349 0.171349C0.265117 0.0775808 0.392294 0.0249023 0.524902 0.0249023H4.4999C4.63251 0.0249023 4.75969 0.0775808 4.85346 0.171349C4.94722 0.265117 4.9999 0.392294 4.9999 0.524902C4.9999 0.657511 4.94722 0.784688 4.85346 0.878456C4.75969 0.972224 4.63251 1.0249 4.4999 1.0249H1.7319L5.8279 5.1209C5.92164 5.21467 5.9743 5.34182 5.9743 5.4744C5.9743 5.60698 5.92164 5.73414 5.8279 5.8279Z" fill="white"/>
</svg>
