<svg width="24" height="24" viewBox="0 0 24 24" fill="none" xmlns="http://www.w3.org/2000/svg">
<path fill-rule="evenodd" clip-rule="evenodd" d="M15.2189 6.96936C15.2885 6.89952 15.3713 6.8441 15.4624 6.80629C15.5535 6.76849 15.6512 6.74902 15.7499 6.74902C15.8485 6.74902 15.9462 6.76849 16.0373 6.80629C16.1284 6.8441 16.2112 6.89952 16.2809 6.96936L20.7809 11.4694C20.8507 11.539 20.9061 11.6218 20.9439 11.7129C20.9818 11.804 21.0012 11.9017 21.0012 12.0004C21.0012 12.099 20.9818 12.1967 20.9439 12.2878C20.9061 12.3789 20.8507 12.4617 20.7809 12.5314L16.2809 17.0314C16.14 17.1722 15.949 17.2513 15.7499 17.2513C15.5507 17.2513 15.3597 17.1722 15.2189 17.0314C15.078 16.8905 14.9989 16.6995 14.9989 16.5004C14.9989 16.3012 15.078 16.1102 15.2189 15.9694L19.1894 12.0004L15.2189 8.03136C15.149 7.9617 15.0936 7.87893 15.0558 7.78781C15.018 7.6967 14.9985 7.59901 14.9985 7.50036C14.9985 7.40171 15.018 7.30403 15.0558 7.21291C15.0936 7.1218 15.149 7.03903 15.2189 6.96936Z" fill="white"/>
<path fill-rule="evenodd" clip-rule="evenodd" d="M3 12C3 11.8011 3.07902 11.6103 3.21967 11.4697C3.36032 11.329 3.55109 11.25 3.75 11.25H19.5C19.6989 11.25 19.8897 11.329 20.0303 11.4697C20.171 11.6103 20.25 11.8011 20.25 12C20.25 12.1989 20.171 12.3897 20.0303 12.5303C19.8897 12.671 19.6989 12.75 19.5 12.75H3.75C3.55109 12.75 3.36032 12.671 3.21967 12.5303C3.07902 12.3897 3 12.1989 3 12Z" fill="white"/>
</svg>
