<svg width="32" height="32" viewBox="0 0 32 32" fill="none" xmlns="http://www.w3.org/2000/svg">
<path fill-rule="evenodd" clip-rule="evenodd" d="M11.7078 9.29183C11.801 9.38473 11.8748 9.49508 11.9253 9.61657C11.9757 9.73806 12.0016 9.8683 12.0016 9.99983C12.0016 10.1314 11.9757 10.2616 11.9253 10.3831C11.8748 10.5046 11.801 10.6149 11.7078 10.7078L6.41383 15.9998L11.7078 21.2918C11.8008 21.3848 11.8746 21.4952 11.9249 21.6167C11.9752 21.7381 12.0011 21.8683 12.0011 21.9998C12.0011 22.1313 11.9752 22.2615 11.9249 22.383C11.8746 22.5045 11.8008 22.6149 11.7078 22.7078C11.6149 22.8008 11.5045 22.8746 11.383 22.9249C11.2615 22.9752 11.1313 23.0011 10.9998 23.0011C10.8683 23.0011 10.7381 22.9752 10.6167 22.9249C10.4952 22.8746 10.3848 22.8008 10.2918 22.7078L4.29183 16.7078C4.19871 16.6149 4.12482 16.5046 4.07441 16.3831C4.024 16.2616 3.99805 16.1314 3.99805 15.9998C3.99805 15.8683 4.024 15.7381 4.07441 15.6166C4.12482 15.4951 4.19871 15.3847 4.29183 15.2918L10.2918 9.29183C10.3847 9.19871 10.4951 9.12482 10.6166 9.07441C10.7381 9.024 10.8683 8.99805 10.9998 8.99805C11.1314 8.99805 11.2616 9.024 11.3831 9.07441C11.5046 9.12482 11.6149 9.19871 11.7078 9.29183Z" fill="white"/>
<path fill-rule="evenodd" clip-rule="evenodd" d="M5 16C5 15.7348 5.10536 15.4804 5.29289 15.2929C5.48043 15.1054 5.73478 15 6 15H27C27.2652 15 27.5196 15.1054 27.7071 15.2929C27.8946 15.4804 28 15.7348 28 16C28 16.2652 27.8946 16.5196 27.7071 16.7071C27.5196 16.8946 27.2652 17 27 17H6C5.73478 17 5.48043 16.8946 5.29289 16.7071C5.10536 16.5196 5 16.2652 5 16Z" fill="white"/>
</svg>
