<svg width="32" height="32" viewBox="0 0 32 32" fill="none" xmlns="http://www.w3.org/2000/svg">
<path fill-rule="evenodd" clip-rule="evenodd" d="M20.2918 9.29183C20.3847 9.19871 20.4951 9.12482 20.6166 9.07441C20.7381 9.024 20.8683 8.99805 20.9998 8.99805C21.1314 8.99805 21.2616 9.024 21.3831 9.07441C21.5046 9.12482 21.6149 9.19871 21.7078 9.29183L27.7078 15.2918C27.801 15.3847 27.8748 15.4951 27.9253 15.6166C27.9757 15.7381 28.0016 15.8683 28.0016 15.9998C28.0016 16.1314 27.9757 16.2616 27.9253 16.3831C27.8748 16.5046 27.801 16.6149 27.7078 16.7078L21.7078 22.7078C21.5201 22.8956 21.2654 23.0011 20.9998 23.0011C20.7343 23.0011 20.4796 22.8956 20.2918 22.7078C20.1041 22.5201 19.9986 22.2654 19.9986 21.9998C19.9986 21.7343 20.1041 21.4796 20.2918 21.2918L25.5858 15.9998L20.2918 10.7078C20.1987 10.6149 20.1248 10.5046 20.0744 10.3831C20.024 10.2616 19.998 10.1314 19.998 9.99983C19.998 9.8683 20.024 9.73806 20.0744 9.61657C20.1248 9.49508 20.1987 9.38473 20.2918 9.29183Z" fill="white"/>
<path fill-rule="evenodd" clip-rule="evenodd" d="M4 16C4 15.7348 4.10536 15.4804 4.29289 15.2929C4.48043 15.1054 4.73478 15 5 15H26C26.2652 15 26.5196 15.1054 26.7071 15.2929C26.8946 15.4804 27 15.7348 27 16C27 16.2652 26.8946 16.5196 26.7071 16.7071C26.5196 16.8946 26.2652 17 26 17H5C4.73478 17 4.48043 16.8946 4.29289 16.7071C4.10536 16.5196 4 16.2652 4 16Z" fill="white"/>
</svg>
