<svg width="40" height="40" viewBox="0 0 40 40" fill="none" xmlns="http://www.w3.org/2000/svg">
<path fill-rule="evenodd" clip-rule="evenodd" d="M25.3648 11.6153C25.4809 11.4989 25.6188 11.4065 25.7707 11.3435C25.9226 11.2805 26.0854 11.248 26.2498 11.248C26.4142 11.248 26.577 11.2805 26.7289 11.3435C26.8807 11.4065 27.0187 11.4989 27.1348 11.6153L34.6348 19.1153C34.7512 19.2314 34.8436 19.3693 34.9066 19.5212C34.9696 19.6731 35.002 19.8359 35.002 20.0003C35.002 20.1647 34.9696 20.3275 34.9066 20.4794C34.8436 20.6312 34.7512 20.7692 34.6348 20.8853L27.1348 28.3853C26.9001 28.62 26.5817 28.7519 26.2498 28.7519C25.9179 28.7519 25.5995 28.62 25.3648 28.3853C25.1301 28.1506 24.9982 27.8322 24.9982 27.5003C24.9982 27.1683 25.1301 26.85 25.3648 26.6153L31.9823 20.0003L25.3648 13.3853C25.2484 13.2692 25.156 13.1312 25.093 12.9794C25.03 12.8275 24.9976 12.6647 24.9976 12.5003C24.9976 12.3359 25.03 12.1731 25.093 12.0212C25.156 11.8693 25.2484 11.7314 25.3648 11.6153Z" fill="white"/>
<path fill-rule="evenodd" clip-rule="evenodd" d="M5 20C5 19.6685 5.1317 19.3505 5.36612 19.1161C5.60054 18.8817 5.91848 18.75 6.25 18.75H32.5C32.8315 18.75 33.1495 18.8817 33.3839 19.1161C33.6183 19.3505 33.75 19.6685 33.75 20C33.75 20.3315 33.6183 20.6495 33.3839 20.8839C33.1495 21.1183 32.8315 21.25 32.5 21.25H6.25C5.91848 21.25 5.60054 21.1183 5.36612 20.8839C5.1317 20.6495 5 20.3315 5 20Z" fill="white"/>
</svg>
