<svg width="40" height="40" viewBox="0 0 40 40" fill="none" xmlns="http://www.w3.org/2000/svg">
<path fill-rule="evenodd" clip-rule="evenodd" d="M14.6348 11.6153C14.7512 11.7314 14.8436 11.8693 14.9066 12.0212C14.9696 12.1731 15.002 12.3359 15.002 12.5003C15.002 12.6647 14.9696 12.8275 14.9066 12.9794C14.8436 13.1312 14.7512 13.2692 14.6348 13.3853L8.01729 20.0003L14.6348 26.6153C14.751 26.7315 14.8432 26.8695 14.9061 27.0213C14.969 27.1732 15.0014 27.3359 15.0014 27.5003C15.0014 27.6646 14.969 27.8274 14.9061 27.9792C14.8432 28.1311 14.751 28.2691 14.6348 28.3853C14.5186 28.5015 14.3806 28.5937 14.2288 28.6566C14.0769 28.7195 13.9142 28.7519 13.7498 28.7519C13.5854 28.7519 13.4227 28.7195 13.2708 28.6566C13.119 28.5937 12.981 28.5015 12.8648 28.3853L5.36479 20.8853C5.24838 20.7692 5.15603 20.6312 5.09301 20.4794C5.03 20.3275 4.99756 20.1647 4.99756 20.0003C4.99756 19.8359 5.03 19.6731 5.09301 19.5212C5.15603 19.3693 5.24838 19.2314 5.36479 19.1153L12.8648 11.6153C12.9809 11.4989 13.1188 11.4065 13.2707 11.3435C13.4226 11.2805 13.5854 11.248 13.7498 11.248C13.9142 11.248 14.077 11.2805 14.2289 11.3435C14.3807 11.4065 14.5187 11.4989 14.6348 11.6153Z" fill="white"/>
<path fill-rule="evenodd" clip-rule="evenodd" d="M6.25 20C6.25 19.6685 6.3817 19.3505 6.61612 19.1161C6.85054 18.8817 7.16848 18.75 7.5 18.75H33.75C34.0815 18.75 34.3995 18.8817 34.6339 19.1161C34.8683 19.3505 35 19.6685 35 20C35 20.3315 34.8683 20.6495 34.6339 20.8839C34.3995 21.1183 34.0815 21.25 33.75 21.25H7.5C7.16848 21.25 6.85054 21.1183 6.61612 20.8839C6.3817 20.6495 6.25 20.3315 6.25 20Z" fill="white"/>
</svg>
