<svg width="123" height="56" viewBox="0 0 123 56" fill="none" xmlns="http://www.w3.org/2000/svg">
<g clip-path="url(#clip0)">
<path d="M49.5624 22.4082H59.7279L63.0385 22.4126V17.8196H48.2178C43.8051 18.1114 41.8258 20.9406 41.8258 20.9406C41.8258 20.9406 40.1992 17.8196 35.1605 17.8196H24.347V7.8291H19.7668V18.7391C19.7668 18.7391 17.9461 17.8196 14.8912 17.8196H0V22.448H12.9604C18.528 22.448 19.7535 24.8749 19.7535 26.9305L19.7315 30.0249C19.6698 32.5667 18.9292 34.1051 13.9478 34.1051L2.6582 34.1007C0 34.1007 0 36.7707 0 36.7707V44.6261H4.59343V38.6848L8.4066 38.6892L15.8831 38.6848C23.6549 38.6848 24.3381 34.7991 24.3381 29.5784C24.3381 28.4511 24.3381 26.9835 24.3381 26.9305C24.3029 23.7432 23.2052 22.4568 23.2052 22.4436H34.2612C39.6261 22.4436 39.701 25.8695 39.7363 27.0587L39.7451 38.6804H44.3385V37.5973C45.542 38.2206 46.6176 38.676 49.4742 38.676C49.6549 38.676 63.0385 38.676 63.0385 38.676V34.1007H49.5227C48.1076 34.1007 46.7675 33.8619 45.758 32.9734C44.7794 32.1114 44.3121 30.9267 44.3385 29.5651V26.9393C44.4179 24.4019 46.6749 22.4082 49.5624 22.4082Z" fill="white"/>
<path d="M92.0801 46.5884H94.3503C93.9712 45.5407 93.6009 44.5107 93.213 43.4453C92.8295 44.5151 92.4548 45.5451 92.0801 46.5884Z" fill="white"/>
<path d="M84.4275 43.9098C84.1718 43.733 83.8853 43.6048 83.5811 43.5915C82.911 43.5606 82.2366 43.5606 81.5665 43.5518C81.5577 43.5518 81.5489 43.5606 81.5356 43.5739V48.6354C81.5753 48.6399 81.6018 48.6443 81.6282 48.6443C82.1396 48.6443 82.6553 48.6575 83.1667 48.6399C83.44 48.6266 83.7177 48.5824 83.9778 48.5117C84.5245 48.3525 84.8771 47.9237 84.8815 47.4109C84.8903 46.518 84.8859 45.625 84.8771 44.7321C84.8771 44.3828 84.7184 44.1043 84.4275 43.9098Z" fill="white"/>
<path d="M76.4043 46.5839H78.6746C78.2999 45.5407 77.9252 44.5151 77.5416 43.4453C77.1493 44.5195 76.779 45.5451 76.4043 46.5839Z" fill="white"/>
<path d="M116.815 44.9042C116.824 44.3383 116.573 43.9581 116.061 43.7504C115.933 43.6973 115.797 43.6443 115.665 43.6178C114.942 43.4807 114.21 43.5515 113.482 43.5515C113.478 43.5515 113.474 43.5559 113.46 43.5647V48.6263C113.505 48.6307 113.54 48.6395 113.579 48.6395C114.082 48.6395 114.589 48.6572 115.092 48.6307C115.391 48.6174 115.7 48.5644 115.986 48.4716C116.445 48.3213 116.837 47.919 116.824 47.278C116.798 46.4867 116.802 45.6954 116.815 44.9042Z" fill="white"/>
<path d="M114.007 31.2446C113.782 31.0457 113.518 30.9087 113.24 30.8114C112.707 30.6258 112.147 30.5727 111.591 30.5683C110.758 30.5595 109.925 30.5816 109.092 30.586C107.381 30.586 105.667 30.586 103.956 30.586C103.617 30.586 103.286 30.555 102.951 30.4976C102.091 30.3561 101.258 30.1218 100.46 29.7638C99.7683 29.4543 99.1335 29.0609 98.5736 28.5437C97.9432 27.9602 97.4671 27.2661 97.1674 26.4527C96.947 25.8515 96.8235 25.2327 96.8059 24.5961C96.7971 24.2557 96.8059 23.9153 96.8235 23.5749C96.8368 23.3274 96.872 23.0798 96.9029 22.8367C96.9205 22.6864 96.947 22.5405 96.9734 22.377H96.7839C92.1684 22.377 87.5485 22.377 82.933 22.3814C82.6818 22.3814 82.4261 22.4079 82.1748 22.4521C81.518 22.5626 80.8876 22.7748 80.3013 23.0931C79.1728 23.7076 78.3616 24.6094 77.8723 25.8073C77.5858 26.5146 77.4403 27.2573 77.3962 28.0176C77.361 28.6188 77.3698 29.22 77.4712 29.8212C77.5593 30.3605 77.7048 30.8777 77.9384 31.3684C78.1853 31.8945 78.5203 32.3542 78.9347 32.7565C79.3226 33.1322 79.7591 33.4328 80.2396 33.676C80.7686 33.9456 81.3284 34.1269 81.9147 34.2462C82.3688 34.3391 82.8272 34.3965 83.2945 34.3965C92.0626 34.3877 100.831 34.3833 109.599 34.3744C110.339 34.3744 111.084 34.3744 111.825 34.3744C112.173 34.3744 112.521 34.3479 112.87 34.2816C113.165 34.2241 113.452 34.1313 113.716 33.9854C114.117 33.7644 114.377 33.4328 114.488 32.9819C114.54 32.7698 114.549 32.5576 114.536 32.341C114.501 31.9077 114.333 31.5408 114.007 31.2446Z" fill="white"/>
<path d="M69.0732 0V56H69.8579H122.131H123.004V0H69.0732ZM79.6796 49.1746C79.6443 49.1702 79.5958 49.1083 79.5782 49.0597C79.3578 48.4717 79.1418 47.8794 78.9302 47.287C78.8905 47.1765 78.842 47.1323 78.7142 47.1323C77.881 47.1367 77.0478 47.1367 76.2014 47.1367C76.0736 47.4948 75.9413 47.8573 75.8135 48.2153C75.7165 48.4938 75.6107 48.7723 75.5182 49.0508C75.4829 49.1569 75.43 49.1923 75.3198 49.1835C75.1743 49.1746 75.0288 49.1835 74.8834 49.1835V49.1525C75.0773 48.6353 75.2713 48.1181 75.4608 47.6009C76.0075 46.1067 76.5541 44.617 77.0919 43.1228C77.1272 43.03 77.1669 42.9991 77.2682 43.0035C77.4798 43.0123 77.6959 43.0035 77.9251 43.0035C78.6789 45.059 79.4371 47.1058 80.1998 49.179C80.0146 49.179 79.8471 49.1879 79.6796 49.1746ZM84.2377 48.9978C83.8851 49.1171 83.5236 49.179 83.1533 49.179H81.1652H80.9977V43.0035C81.606 43.0035 82.2055 42.9991 82.805 43.0079C83.118 43.0123 83.4354 43.0256 83.744 43.0654C84.1187 43.1184 84.4582 43.2643 84.7711 43.4765C85.2076 43.7771 85.428 44.197 85.4324 44.7231C85.4412 45.6337 85.4368 46.5488 85.4324 47.4594C85.4324 48.1314 84.9475 48.7502 84.2377 48.9978ZM88.6813 49.179C88.527 49.1658 88.3727 49.1658 88.2184 49.179C88.0906 49.1879 88.0333 49.1437 87.9892 49.0243C87.3235 47.1986 86.6535 45.3729 85.9878 43.5516C85.9217 43.3748 85.86 43.198 85.7851 42.9991C85.9702 42.9991 86.1377 42.9902 86.3008 43.0035C86.3405 43.0079 86.389 43.0786 86.411 43.1273C86.6888 43.8832 86.9621 44.6391 87.2354 45.395C87.6189 46.4471 88.0024 47.4992 88.3815 48.5513C88.3992 48.5999 88.4212 48.6441 88.4477 48.7193C88.5535 48.4231 88.6504 48.1579 88.7474 47.8882C89.3205 46.3012 89.8936 44.7187 90.4578 43.1317C90.4931 43.0256 90.5416 42.9858 90.6518 42.9946C90.7885 43.0035 90.9207 42.9946 91.0882 42.9946C90.9736 43.3085 90.8678 43.5958 90.7664 43.8876C90.1404 45.5984 89.5145 47.3091 88.8929 49.0199C88.8576 49.1392 88.8047 49.1879 88.6813 49.179ZM95.351 49.1746C95.3202 49.1746 95.2761 49.1083 95.2629 49.0685C95.0425 48.485 94.8264 47.8971 94.6193 47.3091C94.5752 47.1809 94.5179 47.1323 94.3768 47.1323C93.5965 47.1411 92.8207 47.1411 92.0404 47.1323C91.917 47.1323 91.8685 47.1765 91.8288 47.287C91.6216 47.8838 91.4056 48.4717 91.194 49.0685C91.1632 49.1569 91.1191 49.1879 91.0309 49.1835C90.8854 49.1746 90.74 49.1835 90.5725 49.1835C91.3263 47.1146 92.0757 45.0635 92.8295 43.0079C93.072 43.0079 93.3012 43.0035 93.5348 43.0123C93.5789 43.0167 93.6406 43.0875 93.6583 43.1361C93.9228 43.8434 94.1828 44.5551 94.4429 45.2624C94.9058 46.5178 95.3643 47.7733 95.8271 49.0243C95.8448 49.0685 95.858 49.1127 95.88 49.1835C95.6905 49.179 95.5185 49.1835 95.351 49.1746ZM101.373 49.179C101.126 49.179 100.888 49.1835 100.65 49.1746C100.606 49.1746 100.544 49.1171 100.518 49.0729C99.9268 48.149 99.3361 47.2163 98.7498 46.288C98.2693 45.5321 97.7888 44.7717 97.3083 44.0158C97.2863 43.9804 97.2598 43.9495 97.2157 43.8832V49.1746H96.6735V43.0035C96.8719 43.0035 97.0747 42.9946 97.2775 43.0079C97.3215 43.0079 97.3656 43.0742 97.3965 43.1184C98.2385 44.4402 99.0716 45.7619 99.9092 47.0837C100.187 47.5213 100.465 47.959 100.742 48.3966C100.764 48.4364 100.795 48.4717 100.839 48.5381V43.0123H101.377V49.179H101.373ZM106.085 48.9668C105.164 49.3868 104.243 49.3514 103.361 48.874C102.783 48.5646 102.479 48.0429 102.479 47.371C102.475 46.5488 102.479 45.731 102.479 44.9087C102.479 44.0379 102.96 43.3748 103.797 43.1184C104.053 43.0388 104.322 42.9991 104.586 42.9416H105.283C105.428 42.9814 105.578 43.0079 105.724 43.0565C106.217 43.2112 106.636 43.4721 106.918 43.9274C106.936 43.9539 106.954 43.9848 106.967 44.0158C106.971 44.029 106.976 44.0423 106.985 44.0688C106.826 44.1484 106.667 44.228 106.504 44.312C106.24 43.839 105.794 43.5958 105.265 43.5207C104.741 43.4455 104.216 43.4897 103.736 43.7373C103.273 43.976 103.021 44.3518 103.026 44.8955C103.035 45.6824 103.048 46.4692 103.021 47.2561C102.999 47.9678 103.449 48.3877 103.916 48.5425C104.578 48.7635 105.243 48.8033 105.891 48.4717C106.151 48.3391 106.354 48.1446 106.504 47.8794C106.672 47.959 106.83 48.0385 106.993 48.1181C106.795 48.5159 106.478 48.7856 106.085 48.9668ZM111.785 49.1702H107.853V43.0035H111.785V43.5295H108.404V45.815H111.525V46.3675H108.404V48.6397H111.785V49.1702ZM117.37 47.5788C117.344 47.676 117.326 47.7733 117.295 47.8705C117.11 48.4408 116.709 48.8077 116.163 48.9889C115.85 49.095 115.515 49.1569 115.184 49.1702C114.448 49.1967 113.712 49.179 112.98 49.179C112.962 49.179 112.94 49.1746 112.914 49.1702V43.0079C112.962 43.0079 113.011 42.9991 113.055 42.9991C113.734 42.9991 114.408 42.9946 115.087 42.9991C115.625 43.0035 116.132 43.1228 116.595 43.4058C117.022 43.6666 117.282 44.0335 117.344 44.5374C117.348 44.5595 117.362 44.5816 117.37 44.6037V47.5788ZM119.438 34.4143C119.178 35.0508 118.812 35.6167 118.358 36.125C117.763 36.7881 117.062 37.3186 116.277 37.7386C115.479 38.1629 114.637 38.4547 113.756 38.6315C113.332 38.7155 112.905 38.7818 112.473 38.7995C112.27 38.8083 112.063 38.826 111.86 38.826C106.292 38.826 83.1665 38.826 82.9329 38.826C82.3069 38.8349 81.6809 38.7995 81.0594 38.7155C80.5172 38.6448 79.9838 38.5475 79.4548 38.4105C78.6745 38.2071 77.9207 37.9286 77.2065 37.5529C76.5806 37.2213 75.9987 36.8235 75.4697 36.3416C74.8305 35.7581 74.2971 35.0862 73.8695 34.3259C73.5256 33.7114 73.2611 33.0616 73.0671 32.3852C72.8732 31.7177 72.7498 31.0369 72.6748 30.3473C72.5911 29.5737 72.569 28.7957 72.6087 28.0177C72.6395 27.3723 72.7277 26.7401 72.8511 26.108C73.0142 25.2858 73.2435 24.4856 73.5609 23.7076C73.9708 22.7086 74.5043 21.7891 75.2052 20.9757C75.8885 20.1844 76.6908 19.5434 77.6077 19.0527C78.2601 18.7079 78.9434 18.4515 79.6531 18.2703C80.1292 18.1465 80.6097 18.0625 81.099 18.0051C81.5002 17.9608 82.8888 17.9078 83.1798 17.9078C85.6925 17.9078 97.3171 17.9255 97.3833 17.9255V21.1923C97.3921 21.1923 97.3965 21.1967 97.4009 21.1967C97.4362 21.126 97.4714 21.0597 97.5023 20.9889C97.899 20.1225 98.525 19.4771 99.3405 19.0085C99.9224 18.6726 100.553 18.4471 101.205 18.2924C101.783 18.1509 102.369 18.0581 102.964 18.0095C103.207 17.9918 103.453 17.9697 103.696 17.9564C103.956 17.9432 104.212 17.9343 104.472 17.9255C104.785 17.9166 105.098 17.9078 105.411 17.9078C109.431 17.9078 117.604 17.9078 117.683 17.9078V22.377C117.635 22.377 108.748 22.377 104.41 22.3814C103.806 22.3814 103.215 22.4168 102.642 22.6201C102.298 22.7395 101.986 22.9119 101.73 23.1816C101.47 23.4556 101.337 23.7828 101.329 24.1629C101.324 24.3751 101.342 24.5829 101.395 24.7907C101.501 25.2062 101.743 25.5112 102.118 25.7146C102.418 25.8781 102.744 26.0019 103.074 26.0549C103.387 26.1036 103.696 26.1213 104.013 26.1168C107.156 26.1168 110.295 26.108 113.438 26.1213C114.399 26.1257 115.338 26.2848 116.233 26.6606C116.974 26.9656 117.617 27.4076 118.164 28C118.486 28.3448 118.755 28.7338 118.975 29.1538C119.385 29.9141 119.632 30.7275 119.742 31.5807C119.782 31.8813 119.808 32.1863 119.813 32.4869C119.817 33.15 119.689 33.7954 119.438 34.4143Z" fill="white"/>
</g>
<defs>
<clipPath id="clip0">
<rect width="123" height="56" fill="white"/>
</clipPath>
</defs>
</svg>
