<svg width="123" height="56" viewBox="0 0 123 56" fill="none" xmlns="http://www.w3.org/2000/svg">
<path d="M49.5624 22.4105H59.7279L63.0385 22.4149V17.8223H48.2178C43.8051 18.114 41.8258 20.9429 41.8258 20.9429C41.8258 20.9429 40.1992 17.8223 35.1605 17.8223H24.347V7.83252H19.7668V18.7417C19.7668 18.7417 17.9461 17.8223 14.8912 17.8223H0V22.4502H12.9604C18.528 22.4502 19.7535 24.877 19.7535 26.9324L19.7315 30.0265C19.6698 32.5682 18.9292 34.1064 13.9478 34.1064L2.6582 34.102C0 34.102 0 36.7674 0 36.7674V44.6222H4.59343V38.6814L8.4066 38.6858L15.8831 38.6814C23.6549 38.6814 24.3381 34.796 24.3381 29.5712C24.3381 28.4441 24.3381 26.9766 24.3381 26.9279C24.3029 23.741 23.2052 22.4547 23.2052 22.4414H34.2656C39.6305 22.4414 39.7054 25.8671 39.7363 27.0561L39.7451 38.6814H44.3385V37.5984C45.542 38.2217 46.6176 38.6769 49.4742 38.6769C49.6549 38.6769 63.0385 38.6769 63.0385 38.6769V34.102H49.5227C48.1076 34.102 46.7675 33.8633 45.758 32.9748C44.7794 32.1129 44.3077 30.9283 44.3385 29.5668V26.9412C44.4223 24.3996 46.6793 22.4105 49.5624 22.4105Z" fill="white"/>
<path d="M106.923 46.5672H109.026C108.673 45.5992 108.329 44.6444 107.976 43.6587C107.615 44.6488 107.271 45.5992 106.923 46.5672Z" fill="white"/>
<path d="M83.3957 44.8432C83.3957 44.4012 83.1973 44.0652 82.8049 43.8663C82.0203 43.4685 81.2224 43.4685 80.4289 43.8354C79.9792 44.0431 79.7676 44.4056 79.772 44.9051C79.7809 45.7007 79.7764 46.4964 79.772 47.292C79.772 47.8003 80.0145 48.1539 80.4597 48.3617C81.2136 48.7153 81.9806 48.7153 82.73 48.3529C83.162 48.1451 83.4045 47.7959 83.4001 47.3008C83.3957 46.8986 83.4001 46.4964 83.4001 46.0941C83.3957 45.6786 83.3957 45.2587 83.3957 44.8432Z" fill="white"/>
<path d="M99.2702 44.8564C99.2702 44.4144 99.0718 44.0784 98.6795 43.8795C97.8948 43.4817 97.0969 43.4817 96.3034 43.8486C95.8537 44.0563 95.6421 44.4188 95.6466 44.9183C95.6554 45.7139 95.651 46.5095 95.6466 47.3052C95.6466 47.8135 95.889 48.1671 96.3342 48.3749C97.0881 48.7285 97.8551 48.7285 98.6045 48.366C99.0365 48.1583 99.2746 47.8091 99.2746 47.314C99.2702 46.9118 99.2746 46.5095 99.2746 46.1073C99.2702 45.6918 99.2702 45.2763 99.2702 44.8564Z" fill="white"/>
<path d="M88.7075 45.0909C88.7957 44.3527 88.421 43.8267 87.6892 43.7781C86.9927 43.7339 86.2874 43.7692 85.5776 43.7692V46.1031C85.7981 46.1031 86.0052 46.1076 86.2124 46.1031C86.7017 46.0943 87.1911 46.1076 87.676 46.0678C88.3152 46.0147 88.6326 45.6921 88.7075 45.0909Z" fill="white"/>
<path d="M104.569 45.1792C104.591 45.0245 104.595 44.8565 104.573 44.7018C104.52 44.251 104.278 43.946 103.837 43.831C103.639 43.778 103.427 43.7515 103.224 43.7471C102.682 43.7338 102.14 43.7426 101.598 43.7426H101.448V46.0854C101.465 46.0942 101.47 46.0986 101.47 46.0986C102.157 46.0898 102.845 46.1075 103.528 46.0677C104.154 46.0323 104.489 45.7229 104.569 45.1792Z" fill="white"/>
<path d="M69.0732 0V56H69.8579H122.131H123.004V0H69.0732ZM78.0132 48.6668C77.0919 49.2149 76.153 49.2017 75.2184 48.7243C74.7908 48.5077 74.5263 48.1276 74.4205 47.6502C74.4161 47.6281 74.4029 47.6104 74.3896 47.5927V44.6798C74.4602 44.4234 74.5439 44.1759 74.7158 43.9593C75.0553 43.5305 75.5093 43.3272 76.0339 43.2388C76.7216 43.1194 77.3829 43.1548 77.9912 43.5438C78.2557 43.7162 78.4717 43.9328 78.6172 44.2333C78.4585 44.3129 78.3042 44.388 78.1543 44.4632C77.762 43.8443 77.1624 43.6587 76.4792 43.7073C76.2014 43.725 75.9105 43.7825 75.6504 43.893C75.1699 44.0919 74.9054 44.4632 74.9098 45.0157C74.9186 45.7495 74.9098 46.4832 74.9098 47.2126C74.9098 47.7828 75.1567 48.1806 75.6901 48.3795C76.3072 48.6094 76.9376 48.6447 77.5504 48.3442C77.7884 48.2292 77.8766 48.1452 78.1587 47.7828C78.3086 47.8535 78.4585 47.9286 78.6172 48.0038C78.4805 48.2911 78.2777 48.5121 78.0132 48.6668ZM83.9159 47.3275C83.9159 48.0347 83.5765 48.5342 82.9461 48.8171C82.6331 48.9586 82.1658 49.1442 81.628 49.1442C81.6016 49.1442 81.2445 49.1884 80.5965 48.9718C80.2571 48.8702 79.9485 48.7199 79.6972 48.4635C79.4063 48.1585 79.2476 47.8005 79.2476 47.3761C79.2476 46.523 79.2388 45.6699 79.2476 44.8168C79.2564 44.1405 79.5958 43.6631 80.1953 43.3846C80.4951 43.2476 81.099 43.0487 81.606 43.0487C82.1129 43.0487 82.4304 43.1813 82.686 43.2609C82.9682 43.3493 83.2282 43.4907 83.4443 43.7029C83.7572 44.0167 83.9159 44.3925 83.9159 44.8389C83.9159 45.6699 83.9159 46.4965 83.9159 47.3275ZM88.6681 49.0072C88.624 49.0028 88.5711 48.9541 88.5358 48.9099C87.9319 48.1629 87.328 47.4203 86.7284 46.6689C86.6711 46.5982 86.6138 46.5672 86.5212 46.5672C86.2083 46.5716 85.8953 46.5672 85.5646 46.5672V48.9983H85.0445V43.2432C85.0577 43.2344 85.0709 43.2255 85.0841 43.2255C85.8776 43.2255 86.6711 43.2255 87.4646 43.2344C87.8349 43.2432 88.192 43.336 88.5182 43.5261C89.0692 43.8532 89.25 44.3748 89.2411 44.9759C89.2279 45.829 88.7783 46.3683 87.76 46.5407C87.6233 46.5628 87.4822 46.5716 87.3059 46.5893C87.9539 47.3982 88.5931 48.1894 89.2544 49.016C89.034 49.0116 88.8488 49.016 88.6681 49.0072ZM92.5826 46.8545C92.0228 46.8722 91.4585 46.8589 90.8987 46.8589H90.7223V48.9983H90.2066V43.2299C90.2595 43.2255 90.308 43.2211 90.3564 43.2211C91.0441 43.2211 91.7318 43.2122 92.4195 43.2255C92.6532 43.2299 92.8956 43.2609 93.1204 43.3272C93.9448 43.5659 94.4341 44.335 94.3812 45.1925C94.3371 45.9484 93.7156 46.8192 92.5826 46.8545ZM99.7946 47.3452C99.7946 48.0524 99.4551 48.5519 98.8292 48.8348C98.5162 48.9762 98.0489 49.1619 97.5111 49.1619C97.4846 49.1619 97.1276 49.2061 96.4796 48.9895C96.1445 48.8878 95.8315 48.7375 95.5803 48.4812C95.2893 48.1762 95.1306 47.8181 95.1306 47.3938C95.1306 46.5407 95.1218 45.6832 95.1306 44.8301C95.1394 44.1582 95.4789 43.6764 96.074 43.3979C96.3738 43.2609 96.9777 43.062 97.4846 43.062C97.9916 43.062 98.309 43.1946 98.5647 43.2741C98.8468 43.3625 99.1069 43.504 99.3229 43.7206C99.6359 44.0344 99.7946 44.4101 99.7946 44.8522C99.7902 45.6876 99.7946 46.5142 99.7946 47.3452ZM104.533 49.0072C104.489 49.0072 104.441 48.9497 104.406 48.9055C103.815 48.1762 103.224 47.4424 102.634 46.7087C102.559 46.6114 102.484 46.5672 102.356 46.5716C102.056 46.5849 101.756 46.5761 101.448 46.5761V48.9983H100.928V43.2388C100.945 43.2344 100.958 43.2255 100.972 43.2255C101.809 43.2344 102.647 43.2255 103.484 43.2565C103.744 43.2653 104.018 43.3537 104.26 43.4642C104.794 43.6985 105.049 44.1449 105.098 44.7151C105.115 44.9052 105.107 45.1041 105.08 45.2942C105.005 45.8069 104.71 46.1517 104.243 46.3639C103.956 46.4921 103.656 46.5584 103.343 46.5716C103.299 46.5716 103.251 46.576 103.176 46.5805C103.833 47.3938 104.467 48.1894 105.129 49.0116C104.908 49.0116 104.723 49.016 104.533 49.0072ZM109.991 49.0072C109.947 49.0028 109.894 48.9409 109.876 48.8923C109.669 48.3397 109.462 47.7828 109.264 47.2258C109.228 47.1197 109.18 47.0888 109.07 47.0888C108.342 47.0932 107.615 47.0932 106.892 47.0888C106.773 47.0888 106.716 47.1153 106.676 47.2347C106.491 47.7828 106.288 48.3309 106.094 48.879C106.059 48.9762 106.015 49.016 105.909 49.0116C105.777 49.0028 105.649 49.0116 105.503 49.0116C105.521 48.9541 105.53 48.9055 105.547 48.8613C106.217 47.0313 106.883 45.2058 107.549 43.3714C107.593 43.252 107.65 43.199 107.778 43.2167C107.84 43.2255 107.906 43.2167 107.968 43.2167C108.347 43.2167 108.347 43.2167 108.479 43.5703C109.127 45.3295 109.771 47.0888 110.419 48.8481C110.436 48.8923 110.449 48.9365 110.471 49.0072C110.291 49.0116 110.141 49.0204 109.991 49.0072ZM114.249 43.7294H112.314V49.0028H111.79V43.7427H109.845V43.2299H114.249V43.7294ZM118.675 43.7117C118.618 43.7206 118.561 43.7338 118.508 43.7338C117.564 43.7338 116.621 43.7338 115.678 43.7338H115.492V45.8467H118.406V46.3727H115.488V48.4856H118.675V48.9807C118.631 48.9895 118.592 49.0028 118.552 49.0028C117.379 49.0028 116.211 49.0028 115.038 49.0028C115.021 49.0028 114.999 48.9983 114.968 48.9983V43.2167H118.675V43.7117ZM119.438 34.4116C119.178 35.0481 118.816 35.6139 118.358 36.1222C117.763 36.7852 117.062 37.3157 116.277 37.7312C115.479 38.1599 114.637 38.4472 113.756 38.624C113.332 38.708 112.905 38.7743 112.473 38.792C112.27 38.8009 112.063 38.8185 111.86 38.8185C106.292 38.8185 83.1665 38.8185 82.9329 38.8185C82.3069 38.8274 81.6809 38.792 81.0594 38.7124C80.5172 38.6417 79.9838 38.5445 79.4548 38.4075C78.6745 38.2041 77.9207 37.9256 77.2065 37.5455C76.5806 37.214 75.9987 36.8162 75.4697 36.3344C74.8305 35.7509 74.2927 35.0834 73.8695 34.3232C73.5256 33.7087 73.2611 33.059 73.0671 32.3782C72.8732 31.7108 72.7498 31.0301 72.6748 30.3405C72.5911 29.567 72.569 28.789 72.6087 28.0111C72.6395 27.3701 72.7277 26.7336 72.8511 26.1015C73.0142 25.2793 73.2435 24.4749 73.5609 23.7013C73.9708 22.7023 74.5043 21.7829 75.2052 20.9696C75.8885 20.1784 76.6908 19.5375 77.6077 19.0468C78.2601 18.702 78.9434 18.4457 79.6531 18.26C80.1292 18.1407 80.6097 18.0523 81.099 17.9948C81.5002 17.9506 82.8888 17.8975 83.1798 17.8975C85.6925 17.8975 97.3171 17.9152 97.3833 17.9152V21.1818C97.3921 21.1818 97.3965 21.1862 97.4053 21.1862C97.4362 21.1155 97.4714 21.0448 97.5067 20.9785C97.9034 20.1121 98.5294 19.4667 99.3449 19.0026C99.9268 18.6622 100.557 18.4412 101.21 18.2821C101.787 18.1407 102.378 18.0478 102.969 17.9992C103.211 17.9815 103.458 17.9594 103.7 17.9462C103.96 17.9329 104.216 17.9241 104.476 17.9196C104.789 17.9108 105.102 17.902 105.415 17.902C109.436 17.902 117.608 17.902 117.688 17.902V22.3708C117.639 22.3708 108.752 22.3708 104.414 22.3708C103.811 22.3708 103.22 22.4062 102.647 22.6095C102.303 22.7289 101.99 22.9013 101.734 23.1709C101.474 23.4449 101.342 23.7765 101.333 24.1522C101.329 24.3644 101.346 24.5721 101.399 24.7799C101.505 25.1954 101.747 25.5004 102.122 25.6993C102.422 25.8628 102.748 25.9866 103.079 26.0396C103.387 26.0882 103.7 26.1059 104.013 26.1059C107.156 26.1059 110.295 26.0971 113.438 26.1103C114.399 26.1148 115.338 26.2739 116.233 26.6452C116.974 26.9546 117.617 27.3922 118.164 27.9845C118.486 28.3337 118.755 28.7183 118.975 29.1382C119.381 29.8985 119.632 30.7118 119.742 31.5649C119.782 31.8655 119.808 32.1705 119.817 32.4711C119.821 33.1474 119.694 33.7927 119.438 34.4116Z" fill="white"/>
<path d="M114.007 31.2424C113.782 31.0391 113.518 30.9065 113.24 30.8092C112.707 30.6192 112.147 30.5706 111.591 30.5661C110.758 30.5573 109.925 30.5794 109.092 30.5838C107.381 30.5882 105.667 30.5838 103.956 30.5882C103.617 30.5882 103.286 30.5573 102.951 30.4998C102.091 30.3584 101.258 30.1241 100.46 29.7661C99.7683 29.4567 99.1335 29.0633 98.5736 28.5461C97.9433 27.9626 97.4672 27.2686 97.1674 26.4553C96.947 25.8542 96.8236 25.2353 96.8059 24.5988C96.7971 24.2585 96.8059 23.9181 96.8236 23.5822C96.8368 23.3346 96.8765 23.0871 96.9029 22.844C96.9205 22.6981 96.947 22.5478 96.9734 22.3843H96.7839C92.1684 22.3843 87.5485 22.3843 82.933 22.3887C82.6818 22.3887 82.4261 22.4152 82.1748 22.455C81.5136 22.5655 80.8876 22.7777 80.3013 23.0959C79.1728 23.7059 78.3616 24.6121 77.8723 25.81C77.5858 26.5172 77.4403 27.2598 77.3918 28.0201C77.3566 28.6212 77.3654 29.2268 77.4668 29.8191C77.5549 30.3584 77.7004 30.8756 77.934 31.3706C78.1809 31.8922 78.5159 32.3563 78.9303 32.7586C79.3182 33.1343 79.7547 33.4349 80.2352 33.678C80.7686 33.9432 81.3284 34.1288 81.9103 34.2482C82.3644 34.341 82.8228 34.3985 83.2901 34.3985C92.0582 34.3941 100.826 34.3852 109.594 34.3808C110.339 34.3808 111.08 34.3764 111.821 34.3808C112.169 34.3808 112.521 34.3543 112.861 34.288C113.156 34.2305 113.443 34.1377 113.707 33.9918C114.108 33.7708 114.373 33.4393 114.479 32.9884C114.532 32.7807 114.54 32.5641 114.527 32.3475C114.505 31.9055 114.333 31.5342 114.007 31.2424Z" fill="white"/>
<path d="M92.4987 43.7427C91.9433 43.7383 91.3834 43.7427 90.828 43.7427C90.7971 43.7427 90.7618 43.7471 90.7266 43.7515V46.3418H90.8676C91.3922 46.3418 91.9124 46.3418 92.437 46.3418C92.5604 46.3418 92.6883 46.3285 92.8117 46.3064C93.6228 46.1473 94.0725 45.3296 93.7683 44.5737C93.5567 44.0521 93.0938 43.7471 92.4987 43.7427Z" fill="white"/>
</svg>
