<svg width="183" height="40" viewBox="0 0 183 40" fill="none" xmlns="http://www.w3.org/2000/svg">
<g clip-path="url(#clip0)">
<path d="M35.7612 16.1249H43.0981H45.493V12.8394H34.7972C31.6107 13.051 30.19 15.0667 30.19 15.0667C30.19 15.0667 29.0129 12.8394 25.3799 12.8394H17.5762V5.7041H14.268V13.5046C14.268 13.5046 12.9589 12.8495 10.7466 12.8495H0V16.1551H9.35637C13.3749 16.1551 14.2578 17.8885 14.2578 19.3599L14.2375 21.567C14.1969 23.3811 13.6591 24.4796 10.0667 24.4796H1.91795C0 24.4796 0 26.3844 0 26.3844V31.9979H3.31836V27.755H6.06845H11.4671C17.0789 27.755 17.566 24.9734 17.566 21.2445C17.566 20.4383 17.566 19.3902 17.566 19.3499C17.5457 17.0722 16.744 16.1551 16.744 16.145H24.7203C28.5968 16.145 28.6475 18.594 28.6678 19.4406L28.678 27.7449H31.9963V26.9689C32.8691 27.4123 33.6403 27.7449 35.7003 27.7449C35.8322 27.7449 45.493 27.7449 45.493 27.7449V24.4695H35.7409C34.716 24.4695 33.7519 24.2982 33.0213 23.6633C32.3109 23.0485 31.976 22.202 31.9963 21.2244V19.3499C32.0572 17.5459 33.6809 16.1249 35.7612 16.1249Z" fill="#FF1F46"/>
<path d="M88.6824 0H49.8667V40H88.6824V0Z" fill="#EB0029"/>
<path d="M70.2335 12.9303V15.2684H70.2436C70.2639 15.218 70.2944 15.1676 70.3147 15.1172C70.5988 14.5025 71.0555 14.0389 71.644 13.7063C72.0702 13.4644 72.5168 13.3032 72.9937 13.1923C73.4098 13.0915 73.836 13.021 74.2622 12.9907C74.4347 12.9807 74.6174 12.9605 74.7899 12.9504C74.9725 12.9404 75.1654 12.9404 75.348 12.9303C75.5713 12.9202 75.8047 12.9202 76.0279 12.9202C78.9302 12.9202 84.8262 12.9202 84.887 12.9202V16.115C84.8566 16.115 78.4431 16.115 75.3074 16.115C74.8711 16.115 74.4448 16.1452 74.0288 16.2863C73.7852 16.377 73.5518 16.4979 73.3692 16.6894C73.1865 16.8809 73.085 17.1228 73.085 17.3949C73.085 17.546 73.0952 17.6972 73.1358 17.8383C73.2068 18.1407 73.3895 18.3523 73.6533 18.4934C73.8664 18.6143 74.0998 18.6949 74.3434 18.7353C74.5666 18.7655 74.7899 18.7857 75.0233 18.7756C77.2863 18.7756 79.5594 18.7756 81.8224 18.7756C82.5124 18.7756 83.1923 18.8965 83.8418 19.1585C84.3695 19.3803 84.8465 19.6927 85.2321 20.116C85.4655 20.3679 85.6583 20.64 85.8207 20.9424C86.1149 21.4866 86.2976 22.061 86.3686 22.6758C86.3991 22.8874 86.4194 23.1092 86.4194 23.3208C86.4295 23.7945 86.3382 24.2581 86.1555 24.7015C85.9729 25.155 85.709 25.5581 85.3741 25.9209C84.9479 26.3946 84.4405 26.7776 83.8723 27.0699C83.2938 27.3722 82.6849 27.5838 82.0558 27.7048C81.7513 27.7652 81.4469 27.8156 81.1323 27.8257C80.9801 27.8257 80.838 27.8459 80.696 27.8459C76.6774 27.8459 59.9942 27.8459 59.8217 27.8459C59.3651 27.8559 58.9186 27.8257 58.4721 27.7753C58.0763 27.7249 57.7008 27.6544 57.3152 27.5536C56.7469 27.4125 56.2091 27.2109 55.6915 26.9388C55.2349 26.697 54.8188 26.4148 54.4332 26.0721C53.9664 25.6589 53.5909 25.1752 53.2763 24.631C53.0328 24.1875 52.84 23.7239 52.6979 23.2402C52.5558 22.7665 52.4746 22.2727 52.4138 21.7788C52.3529 21.2246 52.3427 20.6703 52.363 20.116C52.3833 19.6524 52.4442 19.1989 52.5355 18.7453C52.6573 18.1608 52.8197 17.5864 53.0429 17.0321C53.3372 16.3165 53.7228 15.6614 54.2302 15.0769C54.7173 14.5125 55.3059 14.059 55.9655 13.7063C56.4323 13.4543 56.9296 13.2729 57.437 13.1419C57.782 13.0512 58.127 12.9907 58.4822 12.9504C58.7765 12.9202 59.771 12.8799 59.9841 12.8799C61.8006 12.9202 70.1827 12.9303 70.2335 12.9303ZM69.9392 16.115H69.8073C66.4787 16.115 63.1401 16.115 59.8116 16.115C59.6289 16.115 59.4463 16.1351 59.2636 16.1653C58.7866 16.246 58.3401 16.3971 57.9139 16.6189C57.1021 17.0522 56.5135 17.7073 56.1685 18.5639C55.9554 19.0678 55.8539 19.602 55.8234 20.1462C55.793 20.5796 55.8032 21.0028 55.8742 21.4362C55.9351 21.8192 56.0467 22.1921 56.2091 22.5448C56.3917 22.9177 56.6251 23.2503 56.9296 23.5324C57.2137 23.8045 57.5283 24.0162 57.8733 24.1875C58.2589 24.379 58.6649 24.51 59.0809 24.5906C59.4057 24.6612 59.7405 24.7015 60.0754 24.7015C66.4077 24.7015 72.7299 24.6914 79.0622 24.6914C79.6 24.6914 80.1378 24.6914 80.6655 24.6914C80.9192 24.6914 81.1729 24.6713 81.4165 24.6209C81.6296 24.5806 81.8325 24.5201 82.0253 24.4092C82.3095 24.248 82.5023 24.0162 82.5835 23.6937C82.6241 23.5425 82.6241 23.3913 82.6139 23.2402C82.5936 22.9278 82.4718 22.6657 82.2283 22.4541C82.0659 22.313 81.8731 22.2122 81.6702 22.1417C81.2845 22.0106 80.8786 21.9703 80.4829 21.9703C79.8841 21.9603 79.2854 21.9804 78.6765 21.9804C77.4385 21.9804 76.2106 21.9804 74.9725 21.9804C74.729 21.9804 74.4854 21.9603 74.252 21.9199C73.633 21.8192 73.0343 21.6478 72.4559 21.3959C71.9586 21.1742 71.502 20.892 71.096 20.5191C70.6394 20.1059 70.2944 19.6121 70.0813 19.0275C69.9189 18.5942 69.8377 18.1507 69.8174 17.6972C69.8073 17.4553 69.8174 17.2135 69.8276 16.9716C69.8377 16.7902 69.858 16.6189 69.8884 16.4475C69.9087 16.3367 69.929 16.2359 69.9392 16.115Z" fill="white"/>
<path d="M93.0664 27.6638V13.1211H98.5869C100.738 13.1211 102.169 14.1491 102.89 15.4794C103.265 16.1344 103.448 16.8601 103.448 17.6159C103.448 18.4121 103.265 19.178 102.89 19.8533C102.21 21.1836 100.759 22.2115 98.6072 22.2115H94.2842V27.6537H93.0664V27.6638ZM98.5869 21.0122C102.676 20.9921 103.285 16.3461 100.596 14.8142C100.079 14.5018 99.4596 14.3405 98.6985 14.3405H98.597H94.2943V21.0122H98.5869Z" fill="white"/>
<path d="M115.463 27.6638H114.184L112.428 22.8162H106.137L104.422 27.6638H103.143L108.4 13.1211H110.176L115.463 27.6638ZM106.573 21.6069H111.992L109.283 14.0281L106.573 21.6069Z" fill="white"/>
<path d="M118.436 21.5061V27.6638H117.218V13.1211H122.739C125.489 13.1211 127.579 14.3305 127.64 17.3539C127.64 20.3773 125.387 21.5061 122.759 21.5061H122.718L127.62 27.6638H126.108L121.308 21.5061H118.436ZM122.759 20.3975C124.992 20.3975 126.422 19.6618 126.422 17.3539C126.422 15.0762 124.91 14.3305 122.759 14.3305H118.436V20.3874H122.759V20.3975Z" fill="white"/>
<path d="M140.061 15.5302L138.965 16.0643V16.0844C138.326 14.7945 136.672 14.1293 135.018 14.1293C132.907 14.1293 130.796 15.2177 130.796 17.3341V23.4515C130.796 25.6083 132.907 26.6564 135.018 26.6564C136.672 26.6564 138.326 26.0013 138.965 24.7012L140.061 25.2354C139.229 26.9789 137.088 27.8658 135.018 27.8658C132.288 27.8658 129.579 26.3843 129.579 23.4515V17.3341C129.579 14.4216 132.349 12.9199 135.079 12.9199C137.149 12.9199 139.239 13.7766 140.061 15.5302Z" fill="white"/>
<path d="M143.471 19.7726H150.808V21.0022H143.471V26.4444H151.427V27.6537H142.243V13.1211H151.427V14.3305H143.471V19.7726Z" fill="white"/>
<path d="M155.232 27.6638H154.015V13.1211H155.232V27.6638Z" fill="white"/>
<path d="M159.718 21.5061V27.6638H158.5V13.1211H164.02C166.771 13.1211 168.861 14.3305 168.922 17.3539C168.922 20.3773 166.669 21.5061 164.041 21.5061H164L168.902 27.6638H167.39L162.59 21.5061H159.718ZM164.041 20.3975C166.273 20.3975 167.704 19.6618 167.704 17.3539C167.704 15.0762 166.192 14.3305 164.041 14.3305H159.718V20.3874H164.041V20.3975Z" fill="white"/>
<path d="M170.84 17.3946C170.84 14.4216 173.732 12.9199 176.655 12.9199C179.547 12.9199 182.449 14.4216 182.449 17.3946V23.3911C182.449 26.3641 179.557 27.8658 176.655 27.8658C173.742 27.8658 170.84 26.3641 170.84 23.3911V17.3946ZM172.058 23.3911C172.058 25.5679 174.351 26.6564 176.644 26.6564C178.918 26.6564 181.211 25.5679 181.211 23.3911V17.3946C181.211 15.0968 178.918 14.1293 176.604 14.1293C174.351 14.1293 172.058 15.1573 172.058 17.3946V23.3911Z" fill="white"/>
</g>
<defs>
<clipPath id="clip0">
<rect width="182.439" height="40" fill="white"/>
</clipPath>
</defs>
</svg>
