<svg width="35" height="35" viewBox="0 0 35 35" fill="none" xmlns="http://www.w3.org/2000/svg">
<path d="M13 0C16.4478 0 19.7544 1.36964 22.1924 3.80761C24.6304 6.24558 26 9.55219 26 13C26 16.22 24.82 19.18 22.88 21.46L23.42 22H25L35 32L32 35L22 25V23.42L21.46 22.88C19.1011 24.8935 16.1014 25.9998 13 26C9.55219 26 6.24558 24.6304 3.80761 22.1924C1.36964 19.7544 0 16.4478 0 13C0 9.55219 1.36964 6.24558 3.80761 3.80761C6.24558 1.36964 9.55219 0 13 0ZM13 4C8 4 4 8 4 13C4 18 8 22 13 22C18 22 22 18 22 13C22 8 18 4 13 4Z" fill="#181818"/>
</svg>
