<svg width="17" height="16" viewBox="0 0 17 16" fill="none" xmlns="http://www.w3.org/2000/svg">
<g clip-path="url(#clip0)">
<path fill-rule="evenodd" clip-rule="evenodd" d="M3.19961 14.8499C3.12161 15.2939 3.55961 15.6409 3.94561 15.4429L8.33561 13.1869L12.7246 15.4429C13.1106 15.6409 13.5486 15.2939 13.4706 14.8509L12.6406 10.1209L16.1636 6.76492C16.4926 6.45092 16.3216 5.87692 15.8806 5.81492L10.9826 5.11892L8.79861 0.791923C8.75701 0.704212 8.69137 0.630106 8.60932 0.578215C8.52728 0.526325 8.43219 0.498779 8.33511 0.498779C8.23804 0.498779 8.14295 0.526325 8.0609 0.578215C7.97886 0.630106 7.91322 0.704212 7.87161 0.791923L5.68761 5.11992L0.789614 5.81592C0.348614 5.87792 0.177614 6.45192 0.506614 6.76592L4.02961 10.1219L3.19961 14.8519V14.8499ZM8.10461 12.0829L4.41861 13.9769L5.11261 10.0199C5.12887 9.92884 5.12251 9.83515 5.09409 9.7471C5.06567 9.65904 5.01606 9.57932 4.94961 9.51492L2.04361 6.74492L6.09561 6.16892C6.17952 6.15625 6.2591 6.12343 6.32755 6.07327C6.39599 6.02312 6.45126 5.95711 6.48861 5.88092L8.33561 2.22292L10.1816 5.88092C10.219 5.95711 10.2742 6.02312 10.3427 6.07327C10.4111 6.12343 10.4907 6.15625 10.5746 6.16892L14.6266 6.74392L11.7206 9.51392C11.6539 9.57837 11.6042 9.65825 11.5758 9.74651C11.5473 9.83477 11.5411 9.92868 11.5576 10.0199L12.2516 13.9769L8.56561 12.0829C8.49434 12.0462 8.41531 12.027 8.33511 12.027C8.25492 12.027 8.17589 12.0462 8.10461 12.0829Z" fill="#CCCA21"/>
</g>
<defs>
<clipPath id="clip0">
<rect width="16" height="16" fill="white" transform="translate(0.333496)"/>
</clipPath>
</defs>
</svg>
