<svg width="16" height="16" viewBox="0 0 16 16" fill="none" xmlns="http://www.w3.org/2000/svg">
<g clip-path="url(#clip0)">
<path fill-rule="evenodd" clip-rule="evenodd" d="M5.35397 5.119L7.53797 0.792C7.57992 0.704954 7.64546 0.631433 7.72714 0.57981C7.80881 0.528186 7.90335 0.500533 7.99997 0.5C8.18297 0.5 8.36597 0.597 8.46497 0.792L10.649 5.119L15.547 5.815C15.6691 5.83419 15.7808 5.89491 15.8633 5.98691C15.9458 6.07891 15.9941 6.19655 16 6.32C16.0068 6.40217 15.9951 6.48483 15.9656 6.56186C15.9362 6.63889 15.8899 6.70831 15.83 6.765L12.307 10.121L13.137 14.851C13.215 15.294 12.777 15.641 12.391 15.443L7.99997 13.187L3.61097 15.443C3.56507 15.4668 3.51586 15.4837 3.46497 15.493C3.12397 15.553 2.79697 15.239 2.86497 14.851L3.69497 10.121L0.172971 6.765C0.118398 6.71311 0.0750612 6.65057 0.0456468 6.58125C0.0162325 6.51193 0.00136675 6.4373 0.00197082 6.362C0.00222751 6.2556 0.031252 6.15125 0.0859708 6.06C0.12537 5.99407 0.17907 5.93783 0.243109 5.89542C0.307148 5.85302 0.379891 5.82553 0.455971 5.815L5.35397 5.119ZM7.99997 12.027C8.07997 12.027 8.15997 12.045 8.23197 12.083L11.918 13.977L11.224 10.02C11.2076 9.92891 11.2139 9.8352 11.2424 9.74713C11.2708 9.65906 11.3205 9.57934 11.387 9.515L14.293 6.745L10.241 6.169C10.1571 6.15633 10.0775 6.12351 10.009 6.07335C9.94059 6.02319 9.88533 5.95719 9.84797 5.881L8.00197 2.223L7.99997 2.226V12.026V12.027Z" fill="#CCCA21"/>
</g>
<defs>
<clipPath id="clip0">
<rect width="16" height="16" fill="white"/>
</clipPath>
</defs>
</svg>
