<svg width="40" height="40" viewBox="0 0 40 40" fill="none" xmlns="http://www.w3.org/2000/svg">
<path fill-rule="evenodd" clip-rule="evenodd" d="M5 33.75V17.5H7.5V33.75C7.5 34.0815 7.6317 34.3995 7.86612 34.6339C8.10054 34.8683 8.41848 35 8.75 35H31.25C31.5815 35 31.8995 34.8683 32.1339 34.6339C32.3683 34.3995 32.5 34.0815 32.5 33.75V17.5H35V33.75C35 34.7446 34.6049 35.6984 33.9017 36.4017C33.1984 37.1049 32.2446 37.5 31.25 37.5H8.75C7.75544 37.5 6.80161 37.1049 6.09835 36.4017C5.39509 35.6984 5 34.7446 5 33.75ZM32.5 6.25V15L27.5 10V6.25C27.5 5.91848 27.6317 5.60054 27.8661 5.36612C28.1005 5.1317 28.4185 5 28.75 5H31.25C31.5815 5 31.8995 5.1317 32.1339 5.36612C32.3683 5.60054 32.5 5.91848 32.5 6.25Z" fill="white"/>
<path fill-rule="evenodd" clip-rule="evenodd" d="M18.2326 3.75003C18.7014 3.28135 19.3372 3.01807 20.0001 3.01807C20.663 3.01807 21.2988 3.28135 21.7676 3.75003L38.3851 20.365C38.6198 20.5998 38.7517 20.9181 38.7517 21.25C38.7517 21.582 38.6198 21.9003 38.3851 22.135C38.1504 22.3698 37.8321 22.5016 37.5001 22.5016C37.1682 22.5016 36.8498 22.3698 36.6151 22.135L20.0001 5.51753L3.38511 22.135C3.1504 22.3698 2.83205 22.5016 2.50011 22.5016C2.16817 22.5016 1.84983 22.3698 1.61511 22.135C1.3804 21.9003 1.24854 21.582 1.24854 21.25C1.24854 20.9181 1.3804 20.5998 1.61511 20.365L18.2326 3.75003Z" fill="white"/>
</svg>
