<svg width="40" height="40" viewBox="0 0 40 40" fill="none" xmlns="http://www.w3.org/2000/svg">
<g clip-path="url(#clip0)">
<path fill-rule="evenodd" clip-rule="evenodd" d="M36.9075 0.18745C37.0886 0.299436 37.238 0.455814 37.3417 0.641758C37.4454 0.827702 37.4999 1.03705 37.5 1.24995V38.7499C37.5 39.0815 37.3683 39.3994 37.1339 39.6338C36.8995 39.8683 36.5815 39.9999 36.25 39.9999H28.75C28.4185 39.9999 28.1005 39.8683 27.8661 39.6338C27.6317 39.3994 27.5 39.0815 27.5 38.7499V34.9999H25V38.7499C25 39.0815 24.8683 39.3994 24.6339 39.6338C24.3995 39.8683 24.0815 39.9999 23.75 39.9999H1.25C0.918479 39.9999 0.600537 39.8683 0.366117 39.6338C0.131696 39.3994 0 39.0815 0 38.7499V24.9999C0.000199117 24.7377 0.0828702 24.4822 0.236312 24.2695C0.389754 24.0568 0.606195 23.8978 0.855 23.8149L15 19.0999V11.2499C15 11.018 15.0646 10.7906 15.1864 10.5933C15.3083 10.3959 15.4826 10.2364 15.69 10.1324L35.69 0.13245C35.8808 0.0369648 36.0928 -0.00810937 36.3059 0.00151784C36.519 0.0111451 36.7261 0.0751533 36.9075 0.18745ZM15 21.7349L2.5 25.8999V37.4999H15V21.7349ZM17.5 37.4999H22.5V33.7499C22.5 33.4184 22.6317 33.1005 22.8661 32.8661C23.1005 32.6316 23.4185 32.4999 23.75 32.4999H28.75C29.0815 32.4999 29.3995 32.6316 29.6339 32.8661C29.8683 33.1005 30 33.4184 30 33.7499V37.4999H35V3.27245L17.5 12.0224V37.4999Z" fill="white"/>
<path d="M5 27.5H7.5V30H5V27.5ZM10 27.5H12.5V30H10V27.5ZM5 32.5H7.5V35H5V32.5ZM10 32.5H12.5V35H10V32.5ZM20 22.5H22.5V25H20V22.5ZM25 22.5H27.5V25H25V22.5ZM20 27.5H22.5V30H20V27.5ZM25 27.5H27.5V30H25V27.5ZM30 22.5H32.5V25H30V22.5ZM30 27.5H32.5V30H30V27.5ZM20 17.5H22.5V20H20V17.5ZM25 17.5H27.5V20H25V17.5ZM30 17.5H32.5V20H30V17.5ZM20 12.5H22.5V15H20V12.5ZM25 12.5H27.5V15H25V12.5ZM30 12.5H32.5V15H30V12.5ZM30 7.5H32.5V10H30V7.5Z" fill="white"/>
</g>
<defs>
<clipPath id="clip0">
<rect width="40" height="40" fill="white"/>
</clipPath>
</defs>
</svg>
