<svg width="24" height="24" viewBox="0 0 24 24" fill="none" xmlns="http://www.w3.org/2000/svg">
<path fill-rule="evenodd" clip-rule="evenodd" d="M3 20.25V10.5H4.5V20.25C4.5 20.4489 4.57902 20.6397 4.71967 20.7803C4.86032 20.921 5.05109 21 5.25 21H18.75C18.9489 21 19.1397 20.921 19.2803 20.7803C19.421 20.6397 19.5 20.4489 19.5 20.25V10.5H21V20.25C21 20.8467 20.7629 21.419 20.341 21.841C19.919 22.2629 19.3467 22.5 18.75 22.5H5.25C4.65326 22.5 4.08097 22.2629 3.65901 21.841C3.23705 21.419 3 20.8467 3 20.25ZM19.5 3.75V9L16.5 6V3.75C16.5 3.55109 16.579 3.36032 16.7197 3.21967C16.8603 3.07902 17.0511 3 17.25 3H18.75C18.9489 3 19.1397 3.07902 19.2803 3.21967C19.421 3.36032 19.5 3.55109 19.5 3.75Z" fill="#EB0029"/>
<path fill-rule="evenodd" clip-rule="evenodd" d="M10.9395 2.25021C11.2208 1.96901 11.6022 1.81104 12 1.81104C12.3977 1.81104 12.7792 1.96901 13.0605 2.25021L23.031 12.2192C23.1718 12.36 23.2509 12.5511 23.2509 12.7502C23.2509 12.9494 23.1718 13.1404 23.031 13.2812C22.8901 13.422 22.6991 13.5012 22.5 13.5012C22.3008 13.5012 22.1098 13.422 21.969 13.2812L12 3.31071L2.03097 13.2812C1.89014 13.422 1.69913 13.5012 1.49997 13.5012C1.30081 13.5012 1.1098 13.422 0.968971 13.2812C0.828141 13.1404 0.749023 12.9494 0.749023 12.7502C0.749023 12.5511 0.828141 12.36 0.968971 12.2192L10.9395 2.25021Z" fill="#EB0029"/>
</svg>
