<svg width="24" height="24" viewBox="0 0 24 24" fill="none" xmlns="http://www.w3.org/2000/svg">
<path fill-rule="evenodd" clip-rule="evenodd" d="M5.88752 2.61766C5.80444 2.51109 5.69967 2.42339 5.58014 2.36035C5.46062 2.29732 5.32907 2.2604 5.1942 2.25203C5.05934 2.24367 4.92423 2.26404 4.79783 2.31182C4.67144 2.35959 4.55663 2.43368 4.46102 2.52916L3.00602 3.98416C2.32652 4.66366 2.07601 5.62666 2.37452 6.47116C3.6056 9.9698 5.60864 13.1463 8.23501 15.7652C10.8539 18.3915 14.0304 20.3945 17.529 21.6257C18.3735 21.9227 19.3365 21.6737 20.016 20.9942L21.471 19.5392C21.5664 19.4434 21.6404 19.3286 21.688 19.2021C21.7357 19.0756 21.7559 18.9405 21.7474 18.8056C21.7389 18.6708 21.7018 18.5392 21.6387 18.4198C21.5755 18.3003 21.4877 18.1956 21.381 18.1127L18.138 15.5897C18.0239 15.501 17.8912 15.4394 17.7499 15.4095C17.6085 15.3796 17.4622 15.3822 17.322 15.4172L14.244 16.1867C13.8329 16.2896 13.402 16.2843 12.9935 16.1713C12.585 16.0582 12.2128 15.8413 11.913 15.5417L8.46002 12.0872C8.16035 11.7874 7.94344 11.4151 7.83041 11.0066C7.71737 10.5981 7.71207 10.1673 7.81502 9.75616L8.58452 6.67816C8.61943 6.53796 8.62204 6.39166 8.59216 6.25031C8.56228 6.10895 8.50068 5.97623 8.41201 5.86216L5.88752 2.61766ZM3.40052 1.47016C3.64662 1.22421 3.9422 1.03341 4.26767 0.910414C4.59313 0.787415 4.94102 0.735029 5.28828 0.756732C5.63553 0.778436 5.97419 0.873731 6.28181 1.0363C6.58942 1.19886 6.85895 1.42498 7.07252 1.69966L9.59402 4.94266C10.0575 5.53666 10.221 6.31216 10.038 7.04266L9.26852 10.1222C9.2285 10.2819 9.23054 10.4494 9.27444 10.6082C9.31833 10.7669 9.4026 10.9116 9.51902 11.0282L12.975 14.4812C13.0916 14.5976 13.2363 14.6818 13.395 14.7257C13.5538 14.7696 13.7212 14.7717 13.881 14.7317L16.959 13.9622C17.32 13.872 17.6968 13.8651 18.0609 13.942C18.425 14.019 18.7668 14.1777 19.0605 14.4062L22.3035 16.9277C23.469 17.8337 23.577 19.5572 22.533 20.5997L21.078 22.0547C20.0385 23.0942 18.483 23.5517 17.0325 23.0417C13.3221 21.7357 9.95335 19.6112 7.17602 16.8257C4.38998 14.0485 2.26493 10.6797 0.958515 6.96916C0.448515 5.51866 0.906015 3.96316 1.94552 2.92216L3.40052 1.46866V1.47016Z" fill="#EB0029"/>
</svg>
