<svg width="24" height="24" viewBox="0 0 24 24" fill="none" xmlns="http://www.w3.org/2000/svg">
<path fill-rule="evenodd" clip-rule="evenodd" d="M3 20.25V10.5H4.5V20.25C4.5 20.4489 4.57902 20.6397 4.71967 20.7803C4.86032 20.921 5.05109 21 5.25 21H18.75C18.9489 21 19.1397 20.921 19.2803 20.7803C19.421 20.6397 19.5 20.4489 19.5 20.25V10.5H21V20.25C21 20.8467 20.7629 21.419 20.341 21.841C19.919 22.2629 19.3467 22.5 18.75 22.5H5.25C4.65326 22.5 4.08097 22.2629 3.65901 21.841C3.23705 21.419 3 20.8467 3 20.25ZM19.5 3.75V9L16.5 6V3.75C16.5 3.55109 16.579 3.36032 16.7197 3.21967C16.8603 3.07902 17.0511 3 17.25 3H18.75C18.9489 3 19.1397 3.07902 19.2803 3.21967C19.421 3.36032 19.5 3.55109 19.5 3.75Z" fill="#EB0029"/>
<path fill-rule="evenodd" clip-rule="evenodd" d="M10.9395 2.24973C11.2208 1.96852 11.6023 1.81055 12 1.81055C12.3978 1.81055 12.7792 1.96852 13.0605 2.24973L23.031 12.2187C23.1719 12.3596 23.251 12.5506 23.251 12.7497C23.251 12.9489 23.1719 13.1399 23.031 13.2807C22.8902 13.4216 22.6992 13.5007 22.5 13.5007C22.3009 13.5007 22.1099 13.4216 21.969 13.2807L12 3.31023L2.03103 13.2807C1.8902 13.4216 1.6992 13.5007 1.50003 13.5007C1.30087 13.5007 1.10986 13.4216 0.969032 13.2807C0.828202 13.1399 0.749084 12.9489 0.749084 12.7497C0.749084 12.5506 0.828202 12.3596 0.969032 12.2187L10.9395 2.24973Z" fill="#EB0029"/>
</svg>
