<svg width="18" height="24" viewBox="0 0 18 24" fill="none" xmlns="http://www.w3.org/2000/svg">
<path fill-rule="evenodd" clip-rule="evenodd" d="M14.25 12H3.75C3.35218 12 2.97064 12.158 2.68934 12.4393C2.40804 12.7206 2.25 13.1022 2.25 13.5V21C2.25 21.3978 2.40804 21.7794 2.68934 22.0607C2.97064 22.342 3.35218 22.5 3.75 22.5H14.25C14.6478 22.5 15.0294 22.342 15.3107 22.0607C15.592 21.7794 15.75 21.3978 15.75 21V13.5C15.75 13.1022 15.592 12.7206 15.3107 12.4393C15.0294 12.158 14.6478 12 14.25 12ZM3.75 10.5C2.95435 10.5 2.19129 10.8161 1.62868 11.3787C1.06607 11.9413 0.75 12.7044 0.75 13.5V21C0.75 21.7956 1.06607 22.5587 1.62868 23.1213C2.19129 23.6839 2.95435 24 3.75 24H14.25C15.0456 24 15.8087 23.6839 16.3713 23.1213C16.9339 22.5587 17.25 21.7956 17.25 21V13.5C17.25 12.7044 16.9339 11.9413 16.3713 11.3787C15.8087 10.8161 15.0456 10.5 14.25 10.5H3.75ZM3.75 6C3.75 4.60761 4.30312 3.27226 5.28769 2.28769C6.27226 1.30312 7.60761 0.75 9 0.75C10.3924 0.75 11.7277 1.30312 12.7123 2.28769C13.6969 3.27226 14.25 4.60761 14.25 6V10.5H12.75V6C12.75 5.00544 12.3549 4.05161 11.6517 3.34835C10.9484 2.64509 9.99456 2.25 9 2.25C8.00544 2.25 7.05161 2.64509 6.34835 3.34835C5.64509 4.05161 5.25 5.00544 5.25 6V10.5H3.75V6Z" fill="#EB0029"/>
</svg>
