<svg width="24" height="24" viewBox="0 0 24 24" fill="none" xmlns="http://www.w3.org/2000/svg">
<path fill-rule="evenodd" clip-rule="evenodd" d="M5.88733 2.61766C5.80425 2.51109 5.69948 2.42339 5.57996 2.36035C5.46044 2.29732 5.32889 2.2604 5.19402 2.25203C5.05915 2.24367 4.92405 2.26404 4.79765 2.31182C4.67125 2.35959 4.55645 2.43368 4.46083 2.52916L3.00583 3.98416C2.32633 4.66366 2.07583 5.62666 2.37433 6.47116C3.60542 9.9698 5.60845 13.1463 8.23483 15.7652C10.8537 18.3915 14.0302 20.3945 17.5288 21.6257C18.3733 21.9227 19.3363 21.6737 20.0158 20.9942L21.4708 19.5392C21.5662 19.4434 21.6402 19.3286 21.6879 19.2021C21.7355 19.0756 21.7557 18.9405 21.7472 18.8056C21.7387 18.6708 21.7017 18.5392 21.6385 18.4198C21.5753 18.3003 21.4875 18.1956 21.3808 18.1127L18.1378 15.5897C18.0238 15.501 17.891 15.4394 17.7497 15.4095C17.6083 15.3796 17.462 15.3822 17.3218 15.4172L14.2438 16.1867C13.8327 16.2896 13.4019 16.2843 12.9934 16.1713C12.5849 16.0582 12.2126 15.8413 11.9128 15.5417L8.45983 12.0872C8.16017 11.7874 7.94326 11.4151 7.83022 11.0066C7.71719 10.5981 7.71189 10.1673 7.81483 9.75616L8.58433 6.67816C8.61925 6.53796 8.62186 6.39166 8.59198 6.25031C8.5621 6.10895 8.5005 5.97623 8.41183 5.86216L5.88733 2.61766ZM3.40033 1.47016C3.64643 1.22421 3.94202 1.03341 4.26748 0.910414C4.59294 0.787415 4.94084 0.735029 5.28809 0.756732C5.63534 0.778436 5.97401 0.873731 6.28163 1.0363C6.58924 1.19886 6.85877 1.42498 7.07233 1.69966L9.59383 4.94266C10.0573 5.53666 10.2208 6.31216 10.0378 7.04266L9.26833 10.1222C9.22831 10.2819 9.23035 10.4494 9.27425 10.6082C9.31815 10.7669 9.40241 10.9116 9.51883 11.0282L12.9748 14.4812C13.0914 14.5976 13.2361 14.6818 13.3948 14.7257C13.5536 14.7696 13.721 14.7717 13.8808 14.7317L16.9588 13.9622C17.3199 13.872 17.6967 13.8651 18.0607 13.942C18.4248 14.019 18.7666 14.1777 19.0603 14.4062L22.3033 16.9277C23.4688 17.8337 23.5768 19.5572 22.5328 20.5997L21.0778 22.0547C20.0383 23.0942 18.4828 23.5517 17.0323 23.0417C13.3219 21.7357 9.95316 19.6112 7.17583 16.8257C4.38979 14.0485 2.26475 10.6797 0.958332 6.96916C0.448332 5.51866 0.905832 3.96316 1.94533 2.92216L3.40033 1.46866V1.47016Z" fill="#EB0029"/>
</svg>
