<svg width="32" height="32" viewBox="0 0 32 32" fill="none" xmlns="http://www.w3.org/2000/svg">
<g clip-path="url(#clip0)">
<path d="M7.30797 2.65561C7.1899 2.50374 7.04087 2.37872 6.87077 2.28886C6.70067 2.19901 6.5134 2.14637 6.3214 2.13446C6.1294 2.12254 5.93706 2.15161 5.75716 2.21974C5.57726 2.28787 5.41391 2.3935 5.27797 2.52961L3.20997 4.59961C2.24397 5.56761 1.88797 6.93761 2.30997 8.13961C4.06144 13.1148 6.91055 17.6318 10.646 21.3556C14.3698 25.091 18.8868 27.9401 23.862 29.6916C25.064 30.1136 26.434 29.7576 27.402 28.7916L29.47 26.7236C29.6061 26.5877 29.7117 26.4243 29.7798 26.2444C29.848 26.0645 29.877 25.8722 29.8651 25.6802C29.8532 25.4882 29.8006 25.3009 29.7107 25.1308C29.6209 24.9607 29.4958 24.8117 29.344 24.6936L24.73 21.1056C24.5677 20.9798 24.379 20.8924 24.178 20.8501C23.9771 20.8079 23.7692 20.8118 23.57 20.8616L19.19 21.9556C18.6053 22.1017 17.9928 22.094 17.4121 21.9331C16.8313 21.7722 16.3021 21.4637 15.876 21.0376L10.964 16.1236C10.5375 15.6977 10.2286 15.1686 10.0674 14.5878C9.90617 14.007 9.89809 13.3944 10.044 12.8096L11.14 8.42961C11.1898 8.23041 11.1937 8.02248 11.1514 7.82154C11.1092 7.62059 11.0218 7.43187 10.896 7.26961L7.30797 2.65561ZM3.76797 1.02161C4.11795 0.671512 4.53842 0.399874 5.00144 0.224736C5.46447 0.0495976 5.95945 -0.0250331 6.45353 0.00579951C6.94761 0.0366321 7.42947 0.172222 7.86713 0.403567C8.30478 0.634911 8.68822 0.956716 8.99197 1.34761L12.58 5.95961C13.238 6.80561 13.47 7.90761 13.21 8.94761L12.116 13.3276C12.0594 13.5545 12.0625 13.7921 12.1248 14.0174C12.1872 14.2428 12.3068 14.4481 12.472 14.6136L17.386 19.5276C17.5516 19.6931 17.7574 19.8129 17.9831 19.8753C18.2088 19.9377 18.4468 19.9405 18.674 19.8836L23.052 18.7896C23.5652 18.6613 24.1009 18.6513 24.6185 18.7605C25.1362 18.8696 25.6222 19.095 26.04 19.4196L30.652 23.0076C32.31 24.2976 32.462 26.7476 30.978 28.2296L28.91 30.2976C27.43 31.7776 25.218 32.4276 23.156 31.7016C17.8783 29.8447 13.0865 26.8233 9.13597 22.8616C5.17454 18.9116 2.15318 14.1205 0.295965 8.84361C-0.428035 6.78361 0.221965 4.56961 1.70197 3.08961L3.76997 1.02161H3.76797Z" fill="white"/>
</g>
<defs>
<clipPath id="clip0">
<rect width="32" height="32" fill="white"/>
</clipPath>
</defs>
</svg>
