<svg width="24" height="24" viewBox="0 0 24 24" fill="none" xmlns="http://www.w3.org/2000/svg">
<path fill-rule="evenodd" clip-rule="evenodd" d="M2.46888 6.96936C2.53854 6.89952 2.62131 6.8441 2.71243 6.80629C2.80354 6.76849 2.90122 6.74902 2.99988 6.74902C3.09853 6.74902 3.19621 6.76849 3.28733 6.80629C3.37844 6.8441 3.46121 6.89952 3.53088 6.96936L11.9999 15.4399L20.4689 6.96936C20.5386 6.89963 20.6214 6.84432 20.7125 6.80658C20.8036 6.76884 20.9013 6.74942 20.9999 6.74942C21.0985 6.74942 21.1961 6.76884 21.2873 6.80658C21.3784 6.84432 21.4611 6.89963 21.5309 6.96936C21.6006 7.0391 21.6559 7.12188 21.6937 7.21299C21.7314 7.3041 21.7508 7.40175 21.7508 7.50036C21.7508 7.59898 21.7314 7.69663 21.6937 7.78774C21.6559 7.87885 21.6006 7.96163 21.5309 8.03136L12.5309 17.0314C12.4612 17.1012 12.3784 17.1566 12.2873 17.1944C12.1962 17.2322 12.0985 17.2517 11.9999 17.2517C11.9012 17.2517 11.8035 17.2322 11.7124 17.1944C11.6213 17.1566 11.5385 17.1012 11.4689 17.0314L2.46888 8.03136C2.39903 7.9617 2.34362 7.87893 2.30581 7.78781C2.268 7.6967 2.24854 7.59901 2.24854 7.50036C2.24854 7.40171 2.268 7.30403 2.30581 7.21291C2.34362 7.1218 2.39903 7.03903 2.46888 6.96936Z" fill="#EB0029"/>
</svg>
