<svg width="23" height="24" viewBox="0 0 23 24" fill="none" xmlns="http://www.w3.org/2000/svg">
<path fill-rule="evenodd" clip-rule="evenodd" d="M5.41309 2.61766C5.33001 2.51109 5.22524 2.42339 5.10572 2.36035C4.98619 2.29732 4.85464 2.2604 4.71978 2.25203C4.58491 2.24367 4.44981 2.26404 4.32341 2.31182C4.19701 2.35959 4.0822 2.43368 3.98659 2.52916L2.53159 3.98416C1.85209 4.66366 1.60159 5.62666 1.90009 6.47116C3.13118 9.9698 5.13421 13.1463 7.76059 15.7652C10.3794 18.3915 13.556 20.3945 17.0546 21.6257C17.8991 21.9227 18.8621 21.6737 19.5416 20.9942L20.9966 19.5392C21.092 19.4434 21.166 19.3286 21.2136 19.2021C21.2613 19.0756 21.2815 18.9405 21.273 18.8056C21.2645 18.6708 21.2274 18.5392 21.1643 18.4198C21.1011 18.3003 21.0133 18.1956 20.9066 18.1127L17.6636 15.5897C17.5495 15.501 17.4168 15.4394 17.2754 15.4095C17.1341 15.3796 16.9878 15.3822 16.8476 15.4172L13.7696 16.1867C13.3584 16.2896 12.9276 16.2843 12.5191 16.1713C12.1106 16.0582 11.7383 15.8413 11.4386 15.5417L7.98559 12.0872C7.68593 11.7874 7.46901 11.4151 7.35598 11.0066C7.24294 10.5981 7.23764 10.1673 7.34059 9.75616L8.11009 6.67816C8.145 6.53796 8.14762 6.39166 8.11774 6.25031C8.08785 6.10895 8.02626 5.97623 7.93759 5.86216L5.41309 2.61766ZM2.92609 1.47016C3.17219 1.22421 3.46778 1.03341 3.79324 0.910414C4.1187 0.787415 4.4666 0.735029 4.81385 0.756732C5.1611 0.778436 5.49977 0.873731 5.80738 1.0363C6.115 1.19886 6.38453 1.42498 6.59809 1.69966L9.11959 4.94266C9.58309 5.53666 9.74659 6.31216 9.56359 7.04266L8.79409 10.1222C8.75407 10.2819 8.75611 10.4494 8.80001 10.6082C8.84391 10.7669 8.92817 10.9116 9.04459 11.0282L12.5006 14.4812C12.6171 14.5976 12.7618 14.6818 12.9206 14.7257C13.0794 14.7696 13.2468 14.7717 13.4066 14.7317L16.4846 13.9622C16.8456 13.872 17.2224 13.8651 17.5865 13.942C17.9506 14.019 18.2924 14.1777 18.5861 14.4062L21.8291 16.9277C22.9946 17.8337 23.1026 19.5572 22.0586 20.5997L20.6036 22.0547C19.5641 23.0942 18.0086 23.5517 16.5581 23.0417C12.8477 21.7357 9.47892 19.6112 6.70159 16.8257C3.91555 14.0485 1.79051 10.6797 0.484089 6.96916C-0.0259111 5.51866 0.431589 3.96316 1.47109 2.92216L2.92609 1.46866V1.47016Z" fill="#EB0029"/>
</svg>
