<svg width="32" height="32" viewBox="0 0 32 32" fill="none" xmlns="http://www.w3.org/2000/svg">
<path fill-rule="evenodd" clip-rule="evenodd" d="M23.7078 8.29183C23.8009 8.38473 23.8748 8.49508 23.9252 8.61657C23.9756 8.73806 24.0016 8.8683 24.0016 8.99983C24.0016 9.13137 23.9756 9.26161 23.9252 9.3831C23.8748 9.50459 23.8009 9.61494 23.7078 9.70783L9.7078 23.7078C9.52003 23.8956 9.26535 24.0011 8.9998 24.0011C8.73425 24.0011 8.47957 23.8956 8.2918 23.7078C8.10402 23.5201 7.99854 23.2654 7.99854 22.9998C7.99854 22.7343 8.10402 22.4796 8.2918 22.2918L22.2918 8.29183C22.3847 8.19871 22.495 8.12482 22.6165 8.07441C22.738 8.024 22.8683 7.99805 22.9998 7.99805C23.1313 7.99805 23.2616 8.024 23.3831 8.07441C23.5046 8.12482 23.6149 8.19871 23.7078 8.29183Z" fill="white"/>
<path fill-rule="evenodd" clip-rule="evenodd" d="M8.29183 8.29183C8.19871 8.38473 8.12482 8.49508 8.07441 8.61657C8.024 8.73806 7.99805 8.8683 7.99805 8.99983C7.99805 9.13137 8.024 9.26161 8.07441 9.3831C8.12482 9.50459 8.19871 9.61494 8.29183 9.70783L22.2918 23.7078C22.4796 23.8956 22.7343 24.0011 22.9998 24.0011C23.2654 24.0011 23.5201 23.8956 23.7078 23.7078C23.8956 23.5201 24.0011 23.2654 24.0011 22.9998C24.0011 22.7343 23.8956 22.4796 23.7078 22.2918L9.70783 8.29183C9.61494 8.19871 9.50459 8.12482 9.3831 8.07441C9.26161 8.024 9.13137 7.99805 8.99983 7.99805C8.8683 7.99805 8.73806 8.024 8.61657 8.07441C8.49508 8.12482 8.38473 8.19871 8.29183 8.29183Z" fill="white"/>
</svg>
