<svg width="64" height="64" viewBox="0 0 64 64" fill="none" xmlns="http://www.w3.org/2000/svg">
<path fill-rule="evenodd" clip-rule="evenodd" d="M31.9998 12C27.6773 12.0017 23.4715 13.4037 20.0127 15.9962C16.5538 18.5886 14.0279 22.2319 12.8133 26.3803C11.5987 30.5287 11.7608 34.959 13.2754 39.0076C14.7899 43.0561 17.5754 46.5051 21.2145 48.8378C24.8536 51.1704 29.1505 52.2613 33.4617 51.9471C37.7728 51.6328 41.8661 49.9302 45.1284 47.0944C48.3908 44.2586 50.6466 40.4422 51.5579 36.2168C52.4693 31.9914 51.9872 27.5844 50.1838 23.656C49.9875 23.1784 49.9836 22.6434 50.1728 22.1629C50.362 21.6824 50.7298 21.2938 51.199 21.0783C51.6683 20.8628 52.2027 20.8371 52.6904 21.0067C53.1782 21.1762 53.5815 21.5279 53.8158 21.988C55.9798 26.7024 56.5581 31.9909 55.4641 37.0615C54.3701 42.1321 51.6628 46.7118 47.7475 50.1146C43.8323 53.5174 38.92 55.56 33.7464 55.9367C28.5728 56.3133 23.4165 55.0036 19.0497 52.2037C14.6829 49.4038 11.3409 45.2645 9.52407 40.4058C7.70728 35.5471 7.51357 30.2305 8.97196 25.2524C10.4304 20.2744 13.4623 15.9029 17.6138 12.7926C21.7652 9.68238 26.8126 8.00088 31.9998 8V12Z" fill="white"/>
<path d="M32 17.8643V2.13634C32.0001 1.94633 32.0543 1.76027 32.1563 1.59995C32.2583 1.43963 32.4038 1.31169 32.5759 1.2311C32.748 1.15052 32.9395 1.12063 33.1279 1.14493C33.3164 1.16924 33.494 1.24674 33.64 1.36834L43.08 9.23234C43.56 9.63234 43.56 10.3683 43.08 10.7683L33.64 18.6323C33.494 18.754 33.3164 18.8314 33.1279 18.8558C32.9395 18.8801 32.748 18.8502 32.5759 18.7696C32.4038 18.689 32.2583 18.5611 32.1563 18.4007C32.0543 18.2404 32.0001 18.0544 32 17.8643Z" fill="white"/>
<path d="M23.8463 37V34.616H26.3583V28.936L24.4543 30.024L23.3823 27.896L27.2223 25.72H29.2863V34.616H31.6383V37H23.8463ZM36.72 37.176C35.9733 37.176 35.232 37.0693 34.496 36.856C33.7707 36.632 33.1947 36.3387 32.768 35.976L33.664 33.784C34.6133 34.4347 35.6107 34.76 36.656 34.76C37.2 34.76 37.6213 34.6427 37.92 34.408C38.2187 34.1733 38.368 33.8427 38.368 33.416C38.368 33 38.224 32.6693 37.936 32.424C37.648 32.168 37.264 32.04 36.784 32.04C36.0907 32.04 35.472 32.2853 34.928 32.776H33.088V25.72H40.448V28.104H35.856V30.104C36.3467 29.8373 36.912 29.704 37.552 29.704C38.2667 29.704 38.896 29.8587 39.44 30.168C39.984 30.4667 40.4053 30.888 40.704 31.432C41.0133 31.976 41.168 32.6107 41.168 33.336C41.168 34.104 40.9867 34.7813 40.624 35.368C40.2613 35.944 39.7493 36.392 39.088 36.712C38.4267 37.0213 37.6373 37.176 36.72 37.176Z" fill="white"/>
</svg>
