<svg width="64" height="64" viewBox="0 0 64 64" fill="none" xmlns="http://www.w3.org/2000/svg">
<path fill-rule="evenodd" clip-rule="evenodd" d="M32.0002 12C36.3228 12.0017 40.5285 13.4037 43.9874 15.9962C47.4463 18.5886 49.9722 22.2319 51.1867 26.3803C52.4013 30.5287 52.2392 34.959 50.7246 39.0076C49.2101 43.0561 46.4247 46.5051 42.7855 48.8378C39.1464 51.1704 34.8495 52.2613 30.5383 51.9471C26.2272 51.6328 22.1339 49.9302 18.8716 47.0944C15.6092 44.2586 13.3534 40.4422 12.4421 36.2168C11.5307 31.9914 12.0128 27.5844 13.8162 23.656C14.0125 23.1784 14.0164 22.6434 13.8272 22.1629C13.638 21.6824 13.2703 21.2938 12.801 21.0783C12.3317 20.8628 11.7973 20.8371 11.3096 21.0067C10.8218 21.1762 10.4186 21.5279 10.1842 21.988C8.02023 26.7024 7.44193 31.9909 8.53591 37.0615C9.6299 42.1321 12.3373 46.7118 16.2525 50.1146C20.1677 53.5174 25.08 55.56 30.2536 55.9367C35.4272 56.3133 40.5836 55.0036 44.9503 52.2037C49.3171 49.4038 52.6591 45.2645 54.4759 40.4058C56.2927 35.5471 56.4865 30.2305 55.0281 25.2524C53.5697 20.2744 50.5377 15.9029 46.3863 12.7926C42.2348 9.68238 37.1875 8.00088 32.0002 8V12Z" fill="white"/>
<path d="M32.0001 17.8643V2.13634C32 1.94633 31.9458 1.76027 31.8438 1.59995C31.7418 1.43963 31.5963 1.31169 31.4242 1.2311C31.2521 1.15052 31.0606 1.12063 30.8722 1.14493C30.6837 1.16924 30.5061 1.24674 30.3601 1.36834L20.9201 9.23234C20.8076 9.32619 20.717 9.44363 20.6549 9.57635C20.5928 9.70906 20.5605 9.85381 20.5605 10.0003C20.5605 10.1469 20.5928 10.2916 20.6549 10.4243C20.717 10.5571 20.8076 10.6745 20.9201 10.7683L30.3601 18.6323C30.5061 18.754 30.6837 18.8314 30.8722 18.8558C31.0606 18.8801 31.2521 18.8502 31.4242 18.7696C31.5963 18.689 31.7418 18.5611 31.8438 18.4007C31.9458 18.2404 32 18.0544 32.0001 17.8643Z" fill="white"/>
<path d="M23.8463 37V34.616H26.3583V28.936L24.4543 30.024L23.3823 27.896L27.2223 25.72H29.2863V34.616H31.6383V37H23.8463ZM36.72 37.176C35.9733 37.176 35.232 37.0693 34.496 36.856C33.7707 36.632 33.1947 36.3387 32.768 35.976L33.664 33.784C34.6133 34.4347 35.6107 34.76 36.656 34.76C37.2 34.76 37.6213 34.6427 37.92 34.408C38.2187 34.1733 38.368 33.8427 38.368 33.416C38.368 33 38.224 32.6693 37.936 32.424C37.648 32.168 37.264 32.04 36.784 32.04C36.0907 32.04 35.472 32.2853 34.928 32.776H33.088V25.72H40.448V28.104H35.856V30.104C36.3467 29.8373 36.912 29.704 37.552 29.704C38.2667 29.704 38.896 29.8587 39.44 30.168C39.984 30.4667 40.4053 30.888 40.704 31.432C41.0133 31.976 41.168 32.6107 41.168 33.336C41.168 34.104 40.9867 34.7813 40.624 35.368C40.2613 35.944 39.7493 36.392 39.088 36.712C38.4267 37.0213 37.6373 37.176 36.72 37.176Z" fill="white"/>
</svg>
