<svg width="32" height="32" viewBox="0 0 32 32" fill="none" xmlns="http://www.w3.org/2000/svg">
<g clip-path="url(#clip0)">
<path fill-rule="evenodd" clip-rule="evenodd" d="M0.30094 31.6989C0.481505 31.8794 0.74232 31.9998 1.00313 31.9998C1.26395 31.9998 1.52476 31.8995 1.70533 31.6989L9.93103 23.4732V29.0305C9.93103 29.2913 10.0313 29.5522 10.232 29.7327C10.4125 29.9133 10.6734 30.0337 10.9342 30.0337C11.195 30.0337 11.4558 29.9333 11.6364 29.7327C11.8169 29.5522 11.9373 29.2913 11.9373 29.0305V21.0656C11.9373 20.8048 11.837 20.544 11.6364 20.3634C11.4558 20.1628 11.195 20.0625 10.9342 20.0625H2.94922C2.6884 20.0625 2.42759 20.1628 2.24702 20.3634C2.06646 20.544 1.94608 20.8048 1.94608 21.0656C1.94608 21.3264 2.04639 21.5873 2.24702 21.7678C2.42759 21.9685 2.6884 22.0688 2.94922 22.0688H8.50658L0.280878 30.2945C0.100313 30.475 0 30.7359 0 30.9967C0 31.2575 0.100313 31.5183 0.30094 31.6989Z" fill="white"/>
<path fill-rule="evenodd" clip-rule="evenodd" d="M31.6989 31.6989C31.5183 31.8794 31.2575 31.9998 30.9967 31.9998C30.7359 31.9998 30.475 31.8995 30.2945 31.6989L22.0688 23.4732V29.0305C22.0688 29.2913 21.9685 29.5522 21.7678 29.7327C21.5873 29.9133 21.3264 30.0337 21.0656 30.0337C20.8048 30.0337 20.544 29.9333 20.3634 29.7327C20.1628 29.5722 20.0625 29.3114 20.0625 29.0506V21.0656C20.0625 20.8048 20.1628 20.544 20.3634 20.3634C20.544 20.1628 20.8048 20.0625 21.0656 20.0625H29.0506C29.3114 20.0625 29.5722 20.1628 29.7528 20.3634C29.9333 20.544 30.0537 20.8048 30.0537 21.0656C30.0537 21.3264 29.9534 21.5873 29.7528 21.7678C29.5722 21.9685 29.3114 22.0688 29.0506 22.0688H23.4932L31.7189 30.2945C31.8995 30.475 32.0199 30.7359 32.0199 30.9967C32.0199 31.2575 31.8995 31.5183 31.6989 31.6989Z" fill="white"/>
<path fill-rule="evenodd" clip-rule="evenodd" d="M31.6989 0.30094C31.5183 0.100313 31.2575 0 30.9967 0C30.7359 0 30.475 0.100313 30.2945 0.30094L22.0688 8.50658V2.94922C22.0688 2.6884 21.9685 2.42759 21.7678 2.24702C21.5873 2.06646 21.3264 1.94608 21.0656 1.94608C20.8048 1.94608 20.544 2.0464 20.3634 2.24702C20.1628 2.42759 20.0625 2.6884 20.0625 2.94922V10.9141C20.0625 11.1749 20.1628 11.4357 20.3634 11.6163C20.544 11.7969 20.8048 11.9172 21.0656 11.9172H29.0506C29.3114 11.9172 29.5722 11.8169 29.7528 11.6163C29.9333 11.4357 30.0537 11.1749 30.0537 10.9141C30.0537 10.6533 29.9534 10.3925 29.7528 10.2119C29.5722 10.0313 29.3114 9.93104 29.0506 9.93104H23.4932L31.7189 1.70533C31.8995 1.52477 32.0199 1.26395 32.0199 1.00313C31.9998 0.74232 31.8995 0.481505 31.6989 0.30094Z" fill="white"/>
<path fill-rule="evenodd" clip-rule="evenodd" d="M0.30094 0.30094C0.481505 0.100313 0.74232 0 1.00313 0C1.26395 0 1.52476 0.100313 1.70533 0.30094L9.93103 8.52665V2.94922C9.93103 2.6884 10.0313 2.42759 10.232 2.24702C10.4125 2.06646 10.6734 1.94608 10.9342 1.94608C11.195 1.94608 11.4558 2.04639 11.6364 2.24702C11.837 2.42759 11.9373 2.6884 11.9373 2.94922V10.9141C11.9373 11.1749 11.837 11.4357 11.6364 11.6163C11.4558 11.837 11.195 11.9373 10.9342 11.9373H2.94922C2.6884 11.9373 2.42759 11.837 2.24702 11.6364C2.06646 11.4558 1.94608 11.195 1.94608 10.9342C1.94608 10.6734 2.04639 10.4125 2.24702 10.232C2.42759 10.0313 2.6884 9.93103 2.94922 9.93103H8.50658L0.280878 1.70533C0.100313 1.52476 0 1.26395 0 1.00313C0 0.74232 0.100313 0.481505 0.30094 0.30094Z" fill="white"/>
</g>
<defs>
<clipPath id="clip0">
<rect width="32" height="32" fill="white"/>
</clipPath>
</defs>
</svg>
