<svg width="32" height="32" viewBox="0 0 32 32" fill="none" xmlns="http://www.w3.org/2000/svg">
<path d="M13.434 7.09987C13.6034 7.18149 13.7464 7.30923 13.8465 7.46842C13.9466 7.62762 13.9998 7.81181 14 7.99987V23.9999C13.9997 24.188 13.9464 24.3723 13.8461 24.5315C13.7458 24.6907 13.6026 24.8184 13.4329 24.8999C13.2633 24.9813 13.0742 25.0133 12.8872 24.9921C12.7002 24.9708 12.523 24.8973 12.376 24.7799L7.65 20.9999H3C2.73478 20.9999 2.48043 20.8945 2.29289 20.707C2.10536 20.5194 2 20.2651 2 19.9999V11.9999C2 11.7347 2.10536 11.4803 2.29289 11.2928C2.48043 11.1052 2.73478 10.9999 3 10.9999H7.65L12.376 7.21987C12.5231 7.10225 12.7005 7.02858 12.8877 7.00735C13.0749 6.98612 13.2642 7.01819 13.434 7.09987ZM12 10.0799L8.624 12.7799C8.44699 12.9219 8.22694 12.9995 8 12.9999H4V18.9999H8C8.22694 19.0003 8.44699 19.0779 8.624 19.2199L12 21.9199V10.0799ZM27.708 11.2919C27.8011 11.3848 27.875 11.4951 27.9254 11.6166C27.9758 11.7381 28.0018 11.8683 28.0018 11.9999C28.0018 12.1314 27.9758 12.2616 27.9254 12.3831C27.875 12.5046 27.8011 12.615 27.708 12.7079L24.414 15.9999L27.708 19.2919C27.8958 19.4796 28.0013 19.7343 28.0013 19.9999C28.0013 20.2654 27.8958 20.5201 27.708 20.7079C27.5202 20.8956 27.2656 21.0011 27 21.0011C26.7344 21.0011 26.4798 20.8956 26.292 20.7079L23 17.4139L19.708 20.7079C19.5202 20.8956 19.2656 21.0011 19 21.0011C18.7344 21.0011 18.4798 20.8956 18.292 20.7079C18.1042 20.5201 17.9987 20.2654 17.9987 19.9999C17.9987 19.7343 18.1042 19.4796 18.292 19.2919L21.586 15.9999L18.292 12.7079C18.199 12.6149 18.1253 12.5045 18.075 12.383C18.0246 12.2616 17.9987 12.1314 17.9987 11.9999C17.9987 11.8684 18.0246 11.7382 18.075 11.6167C18.1253 11.4952 18.199 11.3848 18.292 11.2919C18.4798 11.1041 18.7344 10.9986 19 10.9986C19.1315 10.9986 19.2617 11.0245 19.3832 11.0748C19.5046 11.1251 19.615 11.1989 19.708 11.2919L23 14.5859L26.292 11.2919C26.3849 11.1987 26.4952 11.1249 26.6167 11.0744C26.7382 11.024 26.8685 10.9981 27 10.9981C27.1315 10.9981 27.2618 11.024 27.3833 11.0744C27.5048 11.1249 27.6151 11.1987 27.708 11.2919Z" fill="white"/>
</svg>
