<svg width="32" height="32" viewBox="0 0 32 32" fill="none" xmlns="http://www.w3.org/2000/svg">
<path d="M18 7.99955C17.9997 7.81138 17.9464 7.62711 17.8461 7.4679C17.7458 7.3087 17.6026 7.18103 17.4329 7.09956C17.2633 7.01809 17.0742 6.98613 16.8872 7.00736C16.7002 7.02859 16.523 7.10214 16.376 7.21955L11.65 10.9996H7C6.73478 10.9996 6.48043 11.1049 6.29289 11.2924C6.10536 11.48 6 11.7343 6 11.9996V19.9996C6 20.2648 6.10536 20.5191 6.29289 20.7067C6.48043 20.8942 6.73478 20.9996 7 20.9996H11.65L16.376 24.7796C16.523 24.897 16.7002 24.9705 16.8872 24.9917C17.0742 25.013 17.2633 24.981 17.4329 24.8995C17.6026 24.8181 17.7458 24.6904 17.8461 24.5312C17.9464 24.372 17.9997 24.1877 18 23.9996V7.99955ZM12.624 12.7796L16 10.0796V21.9196L12.624 19.2196C12.447 19.0775 12.2269 19 12 18.9996H8V12.9996H12C12.2269 12.9991 12.447 12.9216 12.624 12.7796ZM24.05 15.9996C24.0515 17.1817 23.8195 18.3525 23.3671 19.4446C22.9147 20.5368 22.251 21.5287 21.414 22.3636L20 20.9496C20.651 20.3002 21.1672 19.5286 21.519 18.6791C21.8708 17.8297 22.0513 16.919 22.05 15.9996C22.0512 15.0801 21.8707 14.1695 21.5188 13.32C21.167 12.4706 20.6509 11.699 20 11.0496L21.414 9.63555C22.251 10.4704 22.9147 11.4624 23.3671 12.5545C23.8195 13.6466 24.0515 14.8174 24.05 15.9996Z" fill="white"/>
</svg>
