<svg width="56" height="56" viewBox="0 0 56 56" fill="none" xmlns="http://www.w3.org/2000/svg">
<path d="M16.2612 16.2612C16.4238 16.0982 16.6169 15.9689 16.8295 15.8807C17.0421 15.7925 17.27 15.7471 17.5002 15.7471C17.7304 15.7471 17.9583 15.7925 18.1709 15.8807C18.3835 15.9689 18.5766 16.0982 18.7392 16.2612L28.0002 25.5257L37.2612 16.2612C37.4239 16.0985 37.6171 15.9694 37.8297 15.8814C38.0422 15.7933 38.2701 15.748 38.5002 15.748C38.7303 15.748 38.9582 15.7933 39.1707 15.8814C39.3833 15.9694 39.5765 16.0985 39.7392 16.2612C39.9019 16.4239 40.031 16.6171 40.119 16.8297C40.2071 17.0422 40.2524 17.2701 40.2524 17.5002C40.2524 17.7303 40.2071 17.9582 40.119 18.1707C40.031 18.3833 39.9019 18.5765 39.7392 18.7392L30.4747 28.0002L39.7392 37.2612C39.9019 37.4239 40.031 37.6171 40.119 37.8297C40.2071 38.0422 40.2524 38.2701 40.2524 38.5002C40.2524 38.7303 40.2071 38.9582 40.119 39.1707C40.031 39.3833 39.9019 39.5765 39.7392 39.7392C39.5765 39.9019 39.3833 40.031 39.1707 40.119C38.9582 40.2071 38.7303 40.2524 38.5002 40.2524C38.2701 40.2524 38.0422 40.2071 37.8297 40.119C37.6171 40.031 37.4239 39.9019 37.2612 39.7392L28.0002 30.4747L18.7392 39.7392C18.5765 39.9019 18.3833 40.031 18.1707 40.119C17.9582 40.2071 17.7303 40.2524 17.5002 40.2524C17.2701 40.2524 17.0422 40.2071 16.8297 40.119C16.6171 40.031 16.4239 39.9019 16.2612 39.7392C16.0985 39.5765 15.9694 39.3833 15.8814 39.1707C15.7933 38.9582 15.748 38.7303 15.748 38.5002C15.748 38.2701 15.7933 38.0422 15.8814 37.8297C15.9694 37.6171 16.0985 37.4239 16.2612 37.2612L25.5257 28.0002L16.2612 18.7392C16.0982 18.5766 15.9689 18.3835 15.8807 18.1709C15.7925 17.9583 15.7471 17.7304 15.7471 17.5002C15.7471 17.27 15.7925 17.0421 15.8807 16.8295C15.9689 16.6169 16.0982 16.4238 16.2612 16.2612Z" fill="white"/>
</svg>
